<?xml version="1.0" encoding="iso-8859-1"?>
<!-- Generator: Adobe Illustrator 21.0.2, SVG Export Plug-In . SVG Version: 6.00 Build 0)  -->
<svg version="1.1" id="Layer_1" xmlns="http://www.w3.org/2000/svg" xmlns:xlink="http://www.w3.org/1999/xlink" x="0px" y="0px"
	 viewBox="0 0 52 52" style="enable-background:new 0 0 52 52;" xml:space="preserve">
<path id="activity" style="fill:#AAAAAA;" d="M39.4,30.81l0.07,0.15v-0.15H39.4z M12.53,30.81v0.13l0.07-0.13H12.53z M39.4,30.81
	l0.07,0.15v-0.15H39.4z M12.53,30.81v0.13l0.07-0.13H12.53z M12.53,30.81v0.13l0.07-0.13H12.53z M12.53,30.81v0.13l0.07-0.13H12.53z
	 M12.53,30.81v0.13l0.07-0.13H12.53z M39.4,30.81l0.07,0.15v-0.15H39.4z M39.4,30.81l0.07,0.15v-0.15H39.4z M12.53,30.94l0.07-0.13
	h-0.07V30.94z M51.66,40.8L45.5,28.48V19.5C45.5,8.73,36.77,0,26,0S6.5,8.73,6.5,19.5v8.98L0.34,40.8C0.11,41.25,0,41.75,0,42.25
	c0,1.79,1.46,3.25,3.25,3.25H19.5c0,3.59,2.91,6.5,6.5,6.5s6.5-2.91,6.5-6.5h16.25c1.79,0,3.25-1.46,3.25-3.25
	C52,41.75,51.89,41.25,51.66,40.8z M7.7,39.48l4.82-8.67h0.01V20.22h0.04c-0.03-0.31-0.04-0.62-0.04-0.94v-0.01
	C12.52,11.83,18.56,5.79,26,5.78c7.45-0.01,13.49,6.02,13.5,13.47c0,0.33-0.01,0.65-0.04,0.97h0.01v10.59h0.01l4.82,8.67H7.7z
	 M39.47,30.96v-0.15H39.4L39.47,30.96z M12.6,30.81h-0.07v0.13L12.6,30.81z M12.53,30.81v0.13l0.07-0.13H12.53z M39.4,30.81
	l0.07,0.15v-0.15H39.4z M39.4,30.81l0.07,0.15v-0.15H39.4z M12.53,30.81v0.13l0.07-0.13H12.53z M12.53,30.81v0.13l0.07-0.13H12.53z
	 M12.53,30.81v0.13l0.07-0.13H12.53z"/>
</svg>
