<?xml version="1.0" encoding="iso-8859-1"?>
<!-- Generator: Adobe Illustrator 21.0.2, SVG Export Plug-In . SVG Version: 6.00 Build 0)  -->
<svg version="1.1" id="Layer_1" xmlns="http://www.w3.org/2000/svg" xmlns:xlink="http://www.w3.org/1999/xlink" x="0px" y="0px"
	 viewBox="0 0 500 500" style="enable-background:new 0 0 500 500;" xml:space="preserve">
<g>
	<path d="M39.102,207.317c-0.217-2.189-0.541-3.945-0.542-5.7c-0.027-53.363-0.022-106.726-0.022-160.21
		c0.925-0.819,1.916-1.696,3.24-2.868c1.73,0,3.99,0,6.25,0c51.223,0,102.446-0.001,153.67,0.003c1.793,0,3.645-0.26,5.603,1.376
		c0.166,1.022,0.614,2.501,0.615,3.981c0.036,53.631,0.03,107.261,0.028,160.892c0,0.128-0.025,0.257-0.018,0.191
		c-0.602,1.013-1.114,1.873-1.572,2.643c-0.38,0.145-0.611,0.31-0.842,0.31c-53.631,0.011-107.261,0.016-160.892-0.013
		C42.987,207.921,41.355,207.573,39.102,207.317z"/>
	<path d="M41.348,462.458c-1.09-1.09-1.941-1.941-2.81-2.81c0-53.744-0.005-107.506,0.027-161.268
		c0.001-1.364,0.41-2.728,0.61-3.976c1.573-1.084,3.111-1.382,4.838-1.381c53.497,0.034,106.994,0.027,160.49,0.027
		c0.518,0,1.037,0,1.395,0c1.902,1.628,2.074,3.603,2.071,5.76c-0.037,32.767-0.026,65.534-0.026,98.3
		c0,19.794,0.013,39.588-0.025,59.381c-0.003,1.625-0.358,3.25-0.513,4.57c-1.886,1.491-3.69,1.405-5.505,1.405
		C148.405,462.455,94.908,462.458,41.348,462.458z M162.114,338.952c-26.134,0-51.911,0-77.681,0
		c-0.572,14.071-0.341,74.28,0.268,77.603c25.802,0,51.579,0,77.413,0C162.114,390.639,162.114,364.861,162.114,338.952z"/>
	<path d="M461.847,207.212c-1.922,0.288-3.411,0.704-4.899,0.705c-52.828,0.033-105.656,0.034-158.484-0.001
		c-1.471-0.001-2.941-0.433-4.673-0.705c-0.269-1.696-0.709-3.177-0.71-4.659c-0.035-52.828-0.035-105.656-0.002-158.484
		c0.001-1.478,0.41-2.957,0.593-4.192c1.821-1.516,3.653-1.341,5.456-1.341c53.497,0.003,106.994,0.003,160.528,0.003
		c0.915,0.933,1.849,1.885,2.802,2.856c0,53.46,0.005,106.956-0.023,160.453C462.433,203.48,462.086,205.113,461.847,207.212z
		 M416.624,84.443c-26.139,0-51.915,0-77.684,0c-0.585,15.073-0.346,74.275,0.28,77.598c25.802,0,51.578,0,77.404,0
		C416.624,136.121,416.624,110.343,416.624,84.443z"/>
	<path d="M294.32,461.912c-0.577-1.178-0.849-1.735-1.27-2.593c0-53.535-0.005-107.429,0.028-161.323
		c0.001-1.233,0.421-2.466,0.614-3.523c1.601-1.557,3.408-1.433,5.217-1.433c52.561,0.011,105.121,0.003,157.682,0.034
		c1.62,0.001,3.241,0.381,5.094,0.613c0.287,1.746,0.741,3.223,0.742,4.701c0.036,53.761,0.031,107.522,0.031,161.083
		c-1.017,1.088-1.926,2.061-2.789,2.984c-53.592,0-107.089,0.005-160.586-0.023C297.455,462.433,295.826,462.085,294.32,461.912z
		 M338.956,338.885c0,26.139,0,51.915,0,77.684c15.213,0.586,74.274,0.347,77.597-0.282c0-25.803,0-51.578,0-77.402
		C390.633,338.885,364.854,338.885,338.956,338.885z"/>
</g>
</svg>
