<?xml version="1.0" encoding="iso-8859-1"?>
<!-- Generator: Adobe Illustrator 21.0.2, SVG Export Plug-In . SVG Version: 6.00 Build 0)  -->
<svg version="1.1" id="Layer_1" xmlns="http://www.w3.org/2000/svg" xmlns:xlink="http://www.w3.org/1999/xlink" x="0px" y="0px"
	 viewBox="0 0 88 80" style="enable-background:new 0 0 88 80;" xml:space="preserve">
<path id="chat" style="fill:#CCCCCC;" d="M80.83,68.81l0.42,0.41v-0.55C81.11,68.73,80.97,68.77,80.83,68.81z M80.83,68.81
	l0.42,0.41v-0.55C81.11,68.73,80.97,68.77,80.83,68.81z M6.75,37.64v0.52l0.39-0.39C7.01,37.73,6.88,37.69,6.75,37.64z M6.75,37.64
	v0.52l0.39-0.39C7.01,37.73,6.88,37.69,6.75,37.64z"/>
<g>
	<path style="fill:#CCCCCC;" d="M88,59.22c0,0.59-0.05,1.18-0.16,1.74L88,60.92v15.76l-0.12,0.05l0,0
		c0,1.214-0.642,2.384-1.741,2.902c-1.79,0.843-3.522,0.149-4.367-1.158c-0.002-0.002-0.003-0.004-0.005-0.006l-9.6-8.604
		c-0.462-0.414-1.061-0.643-1.682-0.643H40.623c-5.541,0-10.033-4.492-10.033-10.033V46.163c0-0.018,0.015-0.033,0.033-0.033h7.593
		c0.018,0,0.033,0.015,0.033,0.033V58.12c0,2.21,1.79,4,4,4.01l31.241,0.436c0.648,0.009,1.267,0.268,1.728,0.722l0.631,0.622
		l4.98,4.9l0.42,0.41V58.79c0.04-0.22,0.06-0.44,0.06-0.67V42.623c0-2.228-1.806-4.033-4.033-4.033H65.063
		c-0.018,0-0.033-0.015-0.033-0.033v-7.463c0-0.018,0.015-0.033,0.033-0.033h12.903C83.508,31.06,88,35.552,88,41.093V59.22z"/>
	<path style="fill:#CCCCCC;" d="M47.41,0H10C4.477,0,0,4.477,0,10v18.19c0,0.58,0.05,1.16,0.15,1.71L0,29.86v15.76
		c0.01,1.82,1.47,3.3,3.29,3.32c1.09,0.01,2.07-0.5,2.68-1.3l9.835-8.81c0.46-0.412,1.056-0.64,1.674-0.64H47.41
		c4.52,0,8.35-3.01,9.58-7.13c0.09-0.3,0.17-0.62,0.23-0.94c0.13-0.62,0.19-1.27,0.19-1.93V10C57.41,4.477,52.933,0,47.41,0z
		 M49.75,27.06c0,1.23-0.55,2.33-1.42,3.06c-0.69,0.58-1.59,0.94-2.58,0.94l-31.235,0.446c-0.652,0.009-1.275,0.27-1.739,0.727
		L12.15,32.85l-5.01,4.92l-0.39,0.39V27.73c-0.04-0.22-0.06-0.44-0.06-0.67V11.53c0-2.209,1.791-4,4-4h35.06c2.209,0,4,1.791,4,4
		V27.06z"/>
</g>
</svg>
