<?xml version="1.0" encoding="iso-8859-1"?>
<!-- Generator: Adobe Illustrator 21.0.2, SVG Export Plug-In . SVG Version: 6.00 Build 0)  -->
<svg version="1.1" id="Layer_1" xmlns="http://www.w3.org/2000/svg" xmlns:xlink="http://www.w3.org/1999/xlink" x="0px" y="0px"
	 viewBox="0 0 500 500" style="enable-background:new 0 0 500 500;" xml:space="preserve">
<g>
	<path style="fill:#5E6870;" d="M236.362,115.701c39.616-0.002,79.232-0.019,118.847,0.006c18.133,0.012,27.38,8.902,26.293,27.129
		c-1.094,18.346-3.6,36.611-5.606,54.899c-2.257,20.577-4.641,41.139-6.98,61.707c-2.74,24.096-5.496,48.19-8.232,72.287
		c-2.288,20.154-4.573,40.308-6.83,60.465c-3.001,26.804-5.841,53.627-9.028,80.408c-1.186,9.971-10.008,16.311-22.082,16.351
		c-25.991,0.085-51.983,0.028-77.974,0.029c-30.812,0-61.625,0.009-92.437-0.004c-16.202-0.007-22.931-5.216-24.943-20.894
		c-3.034-23.638-5.372-47.366-8.04-71.052c-2.738-24.309-5.526-48.613-8.276-72.921c-2.702-23.891-5.372-47.787-8.077-71.678
		c-2.752-24.307-5.526-48.612-8.3-72.917c-1.375-12.048-3.085-24.068-4.08-36.147c-1.37-16.637,8.964-27.624,25.639-27.648
		C156.292,115.664,196.327,115.703,236.362,115.701z M270.749,153.733c-47.588,0-94.169,0-141.382,0
		c1.919,14.434,3.757,28.297,5.606,42.158c3.537,26.51,7.07,53.022,10.626,79.53c4,29.818,8.032,59.632,12.034,89.45
		c3.529,26.301,7.256,52.578,10.398,78.925c0.794,6.653,3.655,7.887,9.683,7.852c41.279-0.234,82.561-0.122,123.841-0.126
		c1.466,0,3.239,0.457,4.33-0.197c1.788-1.072,4.143-2.684,4.483-4.417c1.246-6.341,1.829-12.819,2.536-19.259
		c4.312-39.268,8.5-78.551,12.903-117.809c5.241-46.736,10.672-93.45,15.975-140.179c0.598-5.268,0.898-10.569,1.355-16.085
		c-16.985,0-33.038,0-48.604,0c-2.511,8.429-4.883,16.408-7.264,24.384c-4.722,15.815-9.355,31.657-14.22,47.429
		c-2.05,6.645-8.636,9.84-14.953,7.708c-6.436-2.172-8.893-6.952-6.952-13.775c1.543-5.424,3.218-10.81,4.834-16.214
		C260.815,186.941,265.651,170.775,270.749,153.733z"/>
	<path style="fill:#5E6870;" d="M303.145,95.699c-8.547-0.035-12.943-5.86-10.509-14.156c3.349-11.415,6.969-22.751,10.24-34.187
		c4.392-15.354,15.191-23.291,30.293-25.214c28.992-3.692,58.067-6.741,87.107-10.054c6.925-0.79,13.517,3.836,13.881,9.735
		c0.338,5.48-4.709,9.951-11.685,10.738c-28.42,3.206-56.822,6.577-85.249,9.72c-7.073,0.782-10.597,4.669-12.43,11.247
		c-3.08,11.053-6.663,21.964-9.916,32.97C313.124,92.433,309.56,95.825,303.145,95.699z"/>
	<path style="fill:#5E6870;" d="M236.453,427.548c-12.574,0.008-25.148,0.06-37.722-0.008c-9.489-0.051-13.346-4.236-14.025-13.771
		c-2.288-32.14-4.866-64.259-7.207-96.396c-1.521-20.871-2.945-41.75-4.164-62.64c-0.482-8.264,3.661-12.438,11.944-13.945
		c18.01-3.275,35.389,0.558,52.761,4.376c15.198,3.341,30.464,5.285,46.073,4.252c11.53-0.763,16.401,4.731,15.502,16.371
		c-2.16,27.954-4.155,55.92-6.233,83.881c-1.659,22.327-3.302,44.654-5.04,66.975c-0.512,6.584-5.175,10.775-12.283,10.854
		C262.859,427.643,249.655,427.539,236.453,427.548z"/>
</g>
</svg>
