<?xml version="1.0" encoding="iso-8859-1"?>
<!-- Generator: Adobe Illustrator 21.0.2, SVG Export Plug-In . SVG Version: 6.00 Build 0)  -->
<svg version="1.1" id="Layer_1" xmlns="http://www.w3.org/2000/svg" xmlns:xlink="http://www.w3.org/1999/xlink" x="0px" y="0px"
	 viewBox="0 0 90 90" style="enable-background:new 0 0 90 90;" xml:space="preserve">
<path id="explore" style="fill:#CCCCCC;" d="M45,0C32.58,0,21.32,5.04,13.18,13.18S0,32.58,0,45c0,24.85,20.15,45,45,45
	s45-20.15,45-45S69.85,0,45,0z M45,82.5C24.29,82.5,7.5,65.71,7.5,45S24.29,7.5,45,7.5S82.5,24.29,82.5,45S65.71,82.5,45,82.5z"/>
<path style="fill:#CCCCCC;" d="M58.44,32.75c-0.47,1.27-5.89,16.21-6.17,16.96c-0.04,0.16-0.1,0.3-0.2,0.43
	c-0.16,0.22-0.628,1.043-0.778,1.193c-0.15,0.15-0.942,0.577-1.172,0.737c-0.12,0.09-0.26,0.15-0.41,0.19
	c-0.74,0.28-15.68,5.71-16.96,6.17c-0.43,0.22-0.95,0.04-1.17-0.39c-0.12-0.24-0.12-0.53,0-0.78c0.33-0.93,5.787-16.35,6.198-17.42
	c0.11-0.42,0.573-1.128,0.722-1.278c0.15-0.16,1.35-0.693,1.77-0.802c1.07-0.41,16.07-5.86,17-6.18c0.25-0.12,0.54-0.12,0.78,0
	C58.48,31.8,58.66,32.32,58.44,32.75z"/>
</svg>
