<svg width="24" height="24" viewBox="0 0 24 24" fill="none" xmlns="http://www.w3.org/2000/svg">
<path d="M9.14373 20.7821V17.7153C9.14372 16.9381 9.77567 16.3067 10.5584 16.3019H13.4326C14.2189 16.3019 14.8563 16.9347 14.8563 17.7153V17.7153V20.7733C14.8563 21.4473 15.404 21.9951 16.0829 22H18.0438C18.9596 22.0024 19.8388 21.6428 20.4872 21.0007C21.1356 20.3586 21.5 19.4868 21.5 18.5776V9.86588C21.5 9.13142 21.1721 8.43474 20.6046 7.96353L13.943 2.6743C12.7785 1.74915 11.1154 1.77904 9.98539 2.74541L3.46701 7.96353C2.87274 8.42085 2.51755 9.11959 2.5 9.86588V18.5687C2.5 20.4637 4.04738 22 5.95617 22H7.87229C8.19917 22.0024 8.51349 21.8751 8.74547 21.6465C8.97746 21.4178 9.10793 21.1067 9.10792 20.7821H9.14373Z" fill="url(#paint0_linear_1_296)"/>
<defs>
<linearGradient id="paint0_linear_1_296" x1="21.5" y1="22" x2="21.5" y2="2.00003" gradientUnits="userSpaceOnUse">
<stop stop-color="#F16487"/>
<stop offset="1" stop-color="#FC8889"/>
</linearGradient>
</defs>
</svg>
