<?xml version="1.0" encoding="iso-8859-1"?>
<!-- Generator: Adobe Illustrator 21.0.2, SVG Export Plug-In . SVG Version: 6.00 Build 0)  -->
<svg version="1.1" id="Layer_1" xmlns="http://www.w3.org/2000/svg" xmlns:xlink="http://www.w3.org/1999/xlink" x="0px" y="0px"
	 viewBox="0 0 500 500" style="enable-background:new 0 0 500 500;" xml:space="preserve">
<g>
	<path d="M60.893,45.655c25.564,15.196,51.13,30.389,76.692,45.588c9.496,5.646,18.983,11.306,28.629,17.052v268.387
		c-0.893-0.383-1.72-0.632-2.441-1.061c-36.939-21.999-73.852-44.04-110.825-65.98c-3.357-1.992-5.411-4.896-7.348-8.042V55.515
		c0-0.733,0.159-1.465,0.515-2.106C48.145,49.753,51,43,60.893,45.655z"/>
	<path d="M264.01,333.514c-24.484,14.528-48.734,28.917-73.379,43.541c0-89.865,0-179.218,0-268.792
		c31.928-18.997,63.934-38.039,96.348-57.325c0.093,1.628,0.213,2.758,0.213,3.889c0.009,65.715-0.008,131.429,0.068,197.144
		c0.003,2.606-0.843,4.546-2.338,6.52c-10.052,13.274-16.744,28.108-19.833,44.454c-1.709,9.043-2.64,18.205-1.284,27.435
		C263.938,331.292,263.929,332.225,264.01,333.514z"/>
	<path d="M371.232,238.411c38.015,0.025,71.501,25.745,81.056,62.662c6.635,25.635,2.159,49.415-13.506,70.829
		c-18.482,25.264-37.186,50.367-55.804,75.531c-1.029,1.39-2.056,2.805-3.258,4.039c-4.834,4.959-12.272,4.938-17.107-0.029
		c-1.017-1.045-1.891-2.237-2.763-3.412c-18.417-24.817-36.805-49.655-55.239-74.459c-12.289-16.537-18.26-35.013-17.255-55.654
		c1.752-35.964,27.311-67.386,62.17-76.574C356.656,239.465,363.876,238.499,371.232,238.411z M371.331,286.429
		c-19.972,0.366-35.846,15.434-36.002,35.741c-0.153,19.873,15.137,35.883,35.542,36.1c20.116,0.214,35.985-15.39,36.252-35.839
		C407.378,302.872,390.961,286.555,371.331,286.429z"/>
	<path d="M431.2,232.312c-40.242-23.935-79.891-23.901-119.771-0.136c0-60.319,0-120.493,0-181.043
		c1.286,0.698,2.441,1.27,3.544,1.931c35.98,21.576,71.923,43.213,107.962,64.69c5.745,3.424,8.384,7.873,8.346,14.648
		c-0.18,31.994-0.08,63.989-0.08,95.984C431.2,229.57,431.2,230.755,431.2,232.312z"/>
</g>
</svg>
