<?xml version="1.0" encoding="iso-8859-1"?>
<!-- Generator: Adobe Illustrator 21.0.2, SVG Export Plug-In . SVG Version: 6.00 Build 0)  -->
<svg version="1.1" id="Layer_1" xmlns="http://www.w3.org/2000/svg" xmlns:xlink="http://www.w3.org/1999/xlink" x="0px" y="0px"
	 viewBox="0 0 44 39" style="enable-background:new 0 0 44 39;" xml:space="preserve">
<path id="love" style="fill:#AAAAAA;" d="M11.93,5.75l-0.14,0.19c0.19,0.04,0.37,0.11,0.54,0.18L11.93,5.75z M35.82,15.62
	c0.06-0.03,0.12-0.07,0.18-0.1L35.82,15.62z M35.82,15.62c0.06-0.03,0.12-0.07,0.18-0.1L35.82,15.62z M11.93,5.75l-0.14,0.19
	c0.19,0.04,0.37,0.11,0.54,0.18L11.93,5.75z M11.93,5.75l-0.14,0.19c0.19,0.04,0.37,0.11,0.54,0.18L11.93,5.75z M36,15.52"/>
<path style="fill:#AAAAAA;" d="M33.21,0.5c-2.12,0.03-4.08,0.69-5.71,1.8l-5.36,5.2H21.3c0,0-7.07-7.11-11.07-7
	C4.5,0.57-0.08,5.28,0,11v0.28c0.06,2.1,0.73,4.04,1.84,5.66L21.3,39h0.84l17.33-19.36c2.82-1.95,4.63-5.24,4.53-8.92
	C43.84,4.92,39.01,0.34,33.21,0.5z M31.13,21.24L22.14,32L12.7,21.28l-5.21-5.91c-1.38-0.91-2.31-2.46-2.36-4.24
	c-0.01-0.05-0.01-0.1-0.01-0.15c-0.03-2.86,2.25-5.2,5.11-5.24c0.54-0.01,1.07,0.05,1.56,0.2l0.14-0.19l0.4,0.37
	c1.22,0.48,8.28,7.75,8.28,7.75l0.68,0.63h0.85l1.15-0.98c0,0,6.59-6.74,7.83-7.3c0.35-0.17,0.73-0.3,1.13-0.37l0.11-0.1l0.05,0.07
	c0.26-0.05,0.53-0.08,0.8-0.08c2.9-0.08,5.041,2.22,5.39,5.1C38.938,13.625,31.13,21.24,31.13,21.24z"/>
</svg>
