<svg width="28" height="28" viewBox="0 0 28 28" fill="none" xmlns="http://www.w3.org/2000/svg">
<g clip-path="url(#clip0)">
<path d="M27.125 8.75069H0.87505C0.392031 8.75069 7.24792e-05 8.35866 7.24792e-05 7.87571C7.24792e-05 7.39269 0.392103 7.00073 0.87505 7.00073H27.125C27.608 7.00073 28 7.39276 28 7.87571C28 8.35866 27.608 8.75069 27.125 8.75069Z" fill="black"/>
<path d="M0.87505 13.1249H27.125C27.608 13.1249 28 13.5169 28 13.9998C28 14.4828 27.608 14.8748 27.125 14.8748H0.87505C0.392031 14.8748 7.24792e-05 14.4828 7.24792e-05 13.9998C7.24792e-05 13.5169 0.392031 13.1249 0.87505 13.1249Z" fill="black"/>
<path d="M0.875042 19.2509H18.375C18.858 19.2509 19.25 19.6429 19.25 20.1258C19.25 20.6088 18.858 21.0008 18.375 21.0008H0.875042C0.392023 21.0008 6.48499e-05 20.6088 6.48499e-05 20.1258C-7.62939e-06 19.6428 0.392023 19.2509 0.875042 19.2509Z" fill="black"/>
</g>
<defs>
<clipPath id="clip0">
<rect width="28" height="28" fill="white" transform="matrix(-1 0 0 1 28 0)"/>
</clipPath>
</defs>
</svg>
