<?xml version="1.0" encoding="iso-8859-1"?>
<!-- Generator: Adobe Illustrator 21.0.2, SVG Export Plug-In . SVG Version: 6.00 Build 0)  -->
<svg version="1.1" xmlns="http://www.w3.org/2000/svg" xmlns:xlink="http://www.w3.org/1999/xlink" x="0px" y="0px"
	 viewBox="0 0 500 500" style="enable-background:new 0 0 500 500;" xml:space="preserve">
<g id="Layer_1" style="display:none;">
	<g style="display:inline;">
		<path d="M39.102,207.317c-0.217-2.189-0.541-3.945-0.542-5.7c-0.027-53.363-0.022-106.726-0.022-160.21
			c0.925-0.819,1.916-1.696,3.24-2.868c1.73,0,3.99,0,6.25,0c51.223,0,102.446-0.001,153.67,0.003c1.793,0,3.645-0.26,5.603,1.376
			c0.166,1.022,0.614,2.501,0.615,3.981c0.036,53.631,0.03,107.261,0.028,160.892c0,0.128-0.025,0.257-0.018,0.191
			c-0.602,1.013-1.114,1.873-1.572,2.643c-0.38,0.145-0.611,0.31-0.842,0.31c-53.631,0.011-107.261,0.016-160.892-0.013
			C42.987,207.921,41.355,207.573,39.102,207.317z"/>
		<path d="M41.348,462.458c-1.09-1.09-1.941-1.941-2.81-2.81c0-53.744-0.005-107.506,0.027-161.268
			c0.001-1.364,0.41-2.728,0.61-3.976c1.573-1.084,3.111-1.382,4.838-1.381c53.497,0.034,106.994,0.027,160.49,0.027
			c0.518,0,1.037,0,1.395,0c1.902,1.628,2.074,3.603,2.071,5.76c-0.037,32.767-0.026,65.534-0.026,98.3
			c0,19.794,0.013,39.588-0.025,59.381c-0.003,1.625-0.358,3.25-0.513,4.57c-1.886,1.491-3.69,1.405-5.505,1.405
			C148.405,462.455,94.908,462.458,41.348,462.458z M162.114,338.952c-26.134,0-51.911,0-77.681,0
			c-0.572,14.071-0.341,74.28,0.268,77.603c25.802,0,51.579,0,77.413,0C162.114,390.639,162.114,364.861,162.114,338.952z"/>
		<path d="M461.847,207.212c-1.922,0.288-3.411,0.704-4.899,0.705c-52.828,0.033-105.656,0.034-158.484-0.001
			c-1.471-0.001-2.941-0.433-4.673-0.705c-0.269-1.696-0.709-3.177-0.71-4.659c-0.035-52.828-0.035-105.656-0.002-158.484
			c0.001-1.478,0.41-2.957,0.593-4.192c1.821-1.516,3.653-1.341,5.456-1.341c53.497,0.003,106.994,0.003,160.528,0.003
			c0.915,0.933,1.849,1.885,2.802,2.856c0,53.46,0.005,106.956-0.023,160.453C462.433,203.48,462.086,205.113,461.847,207.212z
			 M416.624,84.443c-26.139,0-51.915,0-77.684,0c-0.585,15.073-0.346,74.275,0.28,77.598c25.802,0,51.578,0,77.404,0
			C416.624,136.121,416.624,110.343,416.624,84.443z"/>
		<path d="M294.32,461.912c-0.577-1.178-0.849-1.735-1.27-2.593c0-53.535-0.005-107.429,0.028-161.323
			c0.001-1.233,0.421-2.466,0.614-3.523c1.601-1.557,3.408-1.433,5.217-1.433c52.561,0.011,105.121,0.003,157.682,0.034
			c1.62,0.001,3.241,0.381,5.094,0.613c0.287,1.746,0.741,3.223,0.742,4.701c0.036,53.761,0.031,107.522,0.031,161.083
			c-1.017,1.088-1.926,2.061-2.789,2.984c-53.592,0-107.089,0.005-160.586-0.023C297.455,462.433,295.826,462.085,294.32,461.912z
			 M338.956,338.885c0,26.139,0,51.915,0,77.684c15.213,0.586,74.274,0.347,77.597-0.282c0-25.803,0-51.578,0-77.402
			C390.633,338.885,364.854,338.885,338.956,338.885z"/>
	</g>
</g>
<g id="Layer_2" style="display:none;">
	<g style="display:inline;">
		<path style="fill:#5B5B5B;" d="M175.644,78.446c0,15.931,0,31.405,0,46.777c-5.238,3.59-10.909,6.386-16.059,10.149
			c-4.216,3.081-8.186,6.494-12.524,9.409c-0.688,0.462-1.207,1.175-1.804,1.773c-3.882,3.882-7.78,7.747-11.641,11.649
			c-6.211,6.277-11.309,13.429-16.217,20.728c-4.325,6.433-8.017,13.212-11.271,20.245c-2.079,4.492-3.895,9.083-5.639,13.712
			c-1.752,4.652-3.031,9.446-4.48,14.188c-0.576,1.885-1.039,3.815-1.394,5.754c-0.675,3.689-1.255,7.406-1.89,11.089
			c-0.398,2.309-0.149,4.668-0.741,6.839c-1.196,4.384-0.641,8.79-0.744,13.185c-0.102,4.361,0.163,8.738-0.105,13.085
			c-0.124,2.018,1.027,3.644,0.944,5.568c-0.079,1.826-0.489,3.836,0.115,5.439c0.614,1.63,0.247,3.32,0.819,4.724
			c0.656,1.61,0.577,3.16,0.773,4.756c0.192,1.564,0.607,3.109,1.031,4.632c0.419,1.505,1.212,2.94,1.424,4.463
			c0.658,4.731,2.419,9.117,3.935,13.584c2.475,7.294,5.696,14.256,9.235,21.091c3.846,7.427,8.595,14.239,13.374,21.085
			c6.307,9.035,14.007,16.743,21.947,24.201c6.366,5.98,13.395,11.276,20.864,15.833c6.021,3.674,12.058,7.388,18.561,10.21
			c7.528,3.267,15.189,6.262,23.054,8.527c4.15,1.196,8.406,2.296,12.755,2.958c3.708,0.564,7.401,1.219,11.111,1.774
			c2.73,0.409,5.517,0.079,8.104,0.733c5.932,1.5,11.904,0.714,17.827,0.637c4.086-0.053,8.179-0.95,12.32-0.72
			c1.716-1.192,3.681-0.702,5.56-0.871c1.725-0.155,3.444-0.467,5.139-0.832c3.875-0.835,7.774-1.639,11.594-2.626
			c4.779-1.235,9.479-2.873,14.146-4.546c7.243-2.597,14.257-5.7,21.083-9.253c7.414-3.859,14.404-8.35,21.06-13.411
			c3.368-2.561,6.495-5.402,9.801-7.999c3.635-2.855,6.87-6.07,9.98-9.396c7.109-7.603,13.547-15.748,19.174-24.543
			c4.953-7.741,8.881-15.998,12.785-24.273c1.495-3.17,2.972-6.426,3.814-9.803c0.828-3.318,2.1-6.489,2.977-9.79
			c1.111-4.18,1.561-8.512,3.079-12.627c0.91-2.467,0.81-5.349,0.915-8.055c0.075-1.911,1.289-3.538,0.951-5.57
			c-0.296-1.781-0.443-3.75,0.007-5.461c1.591-6.054,0.448-12.174,0.721-18.251c0.076-1.697-0.624-3.415-0.758-5.14
			c-0.141-1.819,0.302-3.735-0.101-5.471c-0.855-3.682-1.009-7.45-1.7-11.125c-0.73-3.882-1.63-7.759-2.603-11.586
			c-0.96-3.775-2.261-7.491-3.499-11.205c-2.642-7.922-5.918-15.576-9.865-22.938c-3.054-5.697-6.364-11.244-10.154-16.478
			c-2.765-3.819-5.611-7.577-8.556-11.273c-5.43-6.815-11.781-12.717-18.098-18.586c-5.958-5.536-12.742-10.193-19.699-14.496
			c-3.012-1.863-6.068-3.652-9.284-5.583c0-15.039,0-30.34,0-46.063c0.96,0.261,1.853,0.358,2.606,0.733
			c4.781,2.379,9.812,4.192,14.51,6.791c6.332,3.502,12.65,7.003,18.616,11.107c4.604,3.168,9.218,6.324,13.765,9.572
			c1.768,1.263,3.435,2.691,5.027,4.173c5.094,4.74,10.212,9.458,15.16,14.348c3.144,3.107,6.124,6.402,8.962,9.793
			c6.534,7.807,12.39,16.132,17.855,24.705c1.452,2.278,2.969,4.589,4.053,7.169c1.31,3.119,3.478,5.87,4.885,8.958
			c2.48,5.44,4.924,10.895,7.112,16.48c1.714,4.374,3.104,8.846,4.712,13.245c1.941,5.31,3.033,10.874,4.335,16.376
			c0.709,2.995,0.952,6.061,1.707,9.007c0.516,2.011,0.146,4.291,0.932,5.923c1.025,2.127,0.024,4.188,0.732,6.044
			c1.341,3.519,0.133,7.19,0.87,10.633c1.481,6.921,0.441,13.862,0.707,20.783c0.076,1.981-0.616,3.98-0.759,5.984
			c-0.14,1.961,0.467,4.116-0.156,5.865c-0.779,2.187-0.271,4.384-0.816,6.425c-0.538,2.015-0.319,4.103-0.851,5.981
			c-0.939,3.313-1.236,6.736-2.17,10.053c-0.745,2.643-1.221,5.397-1.845,8.098c-1.242,5.382-2.812,10.667-4.599,15.854
			c-3.953,11.47-9.07,22.472-14.996,33.045c-3.618,6.456-7.398,12.843-12.048,18.688c-3.109,3.908-5.953,8.012-9.198,11.842
			c-1.777,2.097-3.682,4.062-5.488,6.123c-1.898,2.166-3.651,4.479-5.703,6.487c-3.865,3.783-7.749,7.575-11.897,11.037
			c-7.418,6.193-15.057,12.146-23.232,17.302c-7.295,4.601-14.965,8.58-22.767,12.289c-8.487,4.035-17.232,7.328-26.168,10.256
			c-4.342,1.423-8.933,1.951-13.138,3.953c-1.394,0.664-3.377,0.455-5.094,0.913c-2.191,0.584-4.833,0.118-6.684,1.161
			c-2.069,1.167-4.341-0.26-6.268,1.336c-0.751,0.622-2.462-0.008-3.712,0.134c-1.167,0.132-2.323,0.832-3.451,0.761
			c-5.277-0.33-10.406,1.258-15.7,0.96c-5.192-0.292-10.415-0.156-15.62-0.036c-4.564,0.106-9.012-0.951-13.582-1.048
			c-3.668-0.078-7.364-1.316-11.128-1.514c-1.837-1.846-4.653,0.175-6.498-1.644c-2.335,0.205-4.43-1.421-6.808-0.895
			c-3.326-2.058-7.296-2.018-10.864-3.333c-3.548-1.308-7.325-2.028-10.811-3.469c-9.381-3.878-18.847-7.617-27.692-12.65
			c-6.172-3.512-12.322-7.103-18.202-11.074c-4.473-3.021-8.403-6.836-12.758-10.049c-7.175-5.294-13.412-11.59-19.544-17.982
			c-4.426-4.614-8.371-9.664-12.383-14.657c-3.377-4.202-6.491-8.544-9.432-13.029c-2.384-3.635-4.75-7.297-6.849-11.098
			c-2.837-5.138-5.431-10.412-8.092-15.646c-1.951-3.837-3.214-7.962-4.895-11.906c-1.746-4.097-3.098-8.297-4.393-12.541
			c-1.149-3.762-2.247-7.532-3.155-11.359c-0.547-2.304-1.022-4.633-1.715-6.893c-0.697-2.275-0.736-4.656-1.525-6.956
			c-0.622-1.81-0.531-3.952-0.869-5.956c-0.659-3.901-0.33-7.973-1.025-11.865c-1.563-8.743-0.385-17.518-0.749-26.267
			c-0.107-2.575-0.038-5.12,0.73-7.699c0.723-2.431-0.646-5.213,0.898-7.669c0.254-0.404,0.026-1.104,0.037-1.667
			c0.036-1.753-0.109-3.45,0.762-5.181c0.688-1.369-0.614-3.329,0.926-4.677c-0.394-4.805,1.678-9.169,2.648-13.706
			c1.307-6.113,3.353-12.066,5.438-17.991c3.733-10.602,8.374-20.77,13.769-30.616c3.362-6.136,7.031-12.085,11.084-17.78
			c2.733-3.84,5.677-7.536,8.552-11.274c6.815-8.864,14.754-16.653,22.872-24.213c4.601-4.285,9.69-8.137,14.835-11.873
			c4.215-3.061,8.62-5.818,12.859-8.826c5.785-4.105,12.254-7.023,18.588-10.155C167.083,82.459,171.21,80.557,175.644,78.446z"/>
		<path style="fill:#5B5B5B;" d="M228.608,203.405c-0.196-1.967-0.541-3.813-0.542-5.659c-0.029-54.457-0.023-108.914-0.023-163.615
			c0.627-0.498,1.391-1.105,2.474-1.965c13.83,0,28.164,0,42.849,0c0.401,0.539,0.983,1.32,1.978,2.656
			c-0.119-0.531-0.011-0.274-0.011-0.016c0.007,54.316,0.013,108.633-0.016,162.949c-0.001,1.846-0.348,3.691-0.545,5.65
			C259.348,203.405,244.331,203.405,228.608,203.405z"/>
	</g>
</g>
<g id="Layer_3" style="display:none;">
	<g style="display:inline;">
		<path style="fill:#A9A9A9;" d="M253.758,21.459c38.74,0.781,69.099,14.109,93.219,40.866
			c16.914,18.762,26.533,41.006,29.679,66.06c2.339,18.626-0.55,36.706-5.63,54.567c-10.378,36.484-27.567,69.439-51.433,98.887
			c-14.816,18.281-31.787,34.346-50.802,48.216c-7.969,5.813-17.083,5.671-25.067-0.269c-32.719-24.34-59.047-54.242-78.636-90.076
			c-11.573-21.171-20.241-43.443-25.792-66.891c-8.88-37.508-2.521-72.258,20.71-103.149c19.209-25.542,45.03-41.046,76.678-46.366
			C243.214,22.207,249.871,21.866,253.758,21.459z M201.204,142.067c-0.672,28.404,22.384,55.683,55.282,55.662
			c31.183-0.02,54.987-24.69,55.356-54.84c0.38-31.034-25.28-55.71-55.172-55.798C225.676,86.999,200.694,112.877,201.204,142.067z"
			/>
		<path style="fill:#A9A9A9;" d="M97.05,238.439c6.477,12.678,12.75,24.956,19.233,37.647c-1.541,0.702-2.727,1.314-3.964,1.795
			c-13.62,5.293-26.811,11.472-38.194,20.762c-4.676,3.816-9.03,8.265-12.657,13.084c-10.517,13.973-8.565,30.359,2.907,43.333
			c7.062,7.986,15.519,14.207,24.84,19.262c22.273,12.078,46.206,19.416,70.978,24.01c14.412,2.673,28.949,4.818,43.51,6.5
			c15.962,1.844,32.045,2.277,48.121,1.954c12.599-0.253,25.227-0.231,37.782-1.154c17.252-1.268,34.399-3.563,51.399-6.965
			c19.488-3.899,38.575-9.058,56.849-16.933c14.728-6.346,28.701-13.94,39.564-26.14c6.354-7.136,10.466-15.148,10.186-25.131
			c-0.257-9.168-4.299-16.485-10.074-23.091c-7.309-8.36-16.347-14.513-26.073-19.675c-4.646-2.466-9.482-4.571-14.217-6.871
			c-0.958-0.465-1.847-1.075-2.967-1.735c7.36-12.034,14.561-23.808,22.049-36.052c5.293,2.684,10.544,5.112,15.571,7.94
			c14.565,8.195,28.051,17.831,39.415,30.226c11.516,12.561,19.628,26.822,21.571,44.019c1.223,10.824-0.692,21.263-4.952,31.263
			c-7.107,16.683-19.161,29.347-33.184,40.308c-18.088,14.138-38.5,24.021-59.9,31.976c-25.431,9.454-51.715,15.628-78.556,19.201
			c-13.834,1.842-27.807,2.833-41.751,3.606c-12.435,0.689-24.94,1.147-37.369,0.625c-15.604-0.656-31.199-2.072-46.73-3.778
			c-23.743-2.608-46.985-7.789-69.728-15.12c-28.163-9.078-54.861-21.099-77.768-40.248c-11.56-9.663-21.487-20.804-27.76-34.798
			c-9.837-21.945-7.385-42.885,5.043-63.017c6.933-11.231,16.171-20.391,26.43-28.517c14.106-11.173,29.817-19.651,46.281-26.788
			C94.06,239.451,95.24,239.094,97.05,238.439z"/>
	</g>
</g>
<g id="Layer_4" style="display:none;">
	<g style="display:inline;">
		<path style="fill:#A9A9A9;" d="M263.082,159.02c0.37,14.185-2.723,27.82-6.65,41.324c-9.961,34.254-26.404,65.094-48.991,92.653
			c-13.226,16.138-28.345,30.332-45.046,42.836c-6.613,4.951-14.944,5.157-22.08-0.081c-6.666-4.893-13.169-10.077-19.289-15.633
			c-20.246-18.381-37.336-39.381-50.893-63.161c-14.837-26.025-25.684-53.599-29.999-83.34
			c-3.345-23.054,0.701-45.194,11.118-66.074C60.693,88.62,74.328,73.407,92.277,62.2c14.708-9.183,30.67-14.771,48.022-16.425
			c26.549-2.531,50.984,3.5,72.936,18.472c27.696,18.888,43.753,45.329,48.988,78.387c0.378,2.388,0.713,4.798,0.825,7.209
			C263.189,152.896,263.082,155.96,263.082,159.02z M100.113,158.436c-1.098,26.349,20.219,52.352,50.894,52.507
			c28.988,0.146,51.419-23.152,51.589-51.638c0.189-31.533-25.723-52.425-51.103-52.488
			C122.362,106.744,99.408,131.74,100.113,158.436z"/>
		<path style="fill:#A9A9A9;" d="M256.288,437.585c-71.907,0-143.813,0-215.72,0c-0.765,0-1.53,0.001-2.295,0
			c-6.133-0.01-6.138-0.01-6.141-6.2c-0.004-10.327-0.016-20.654,0.007-30.981c0.01-4.436,0.426-4.826,4.773-4.89
			c0.765-0.011,1.53-0.003,2.295-0.003c144.706,0,289.411,0,434.117,0c7.099,0,7.1,0.002,7.101,7.167
			c0.001,9.69,0.006,19.379-0.002,29.069c-0.005,5.749-0.083,5.835-5.739,5.836c-33.786,0.005-67.572,0.003-101.358,0.003
			C334.314,437.585,295.301,437.585,256.288,437.585z"/>
		<path style="fill:#A9A9A9;" d="M378.55,325.253c-31.237,0-62.474,0-93.711,0c-1.02,0-2.04,0.015-3.06-0.006
			c-4.005-0.081-4.667-0.655-4.694-4.698c-0.061-9.052-0.025-18.105-0.023-27.157c0-2.04-0.075-4.086,0.063-6.118
			c0.198-2.921,1.107-3.788,4.021-4.04c1.14-0.099,2.293-0.053,3.441-0.053c62.729-0.002,125.458-0.003,188.187-0.001
			c7.609,0,7.652,0.05,7.653,7.672c0.001,9.69,0.011,19.38-0.005,29.07c-0.008,5.074-0.26,5.325-5.482,5.326
			C442.809,325.257,410.68,325.253,378.55,325.253z"/>
		<path style="fill:#A9A9A9;" d="M400.105,171.35c24.465,0,48.93,0,73.396,0c1.019,0,2.04-0.03,3.058,0.015
			c3.171,0.14,3.813,0.689,3.84,3.858c0.065,7.9,0.027,15.8,0.028,23.7c0,3.44,0.061,6.883-0.031,10.321
			c-0.087,3.223-0.904,3.975-4.15,4.143c-1.017,0.053-2.038,0.02-3.058,0.02c-48.93,0.001-97.861,0.001-146.791,0
			c-0.892,0-1.785,0.02-2.676-0.01c-3.565-0.121-4.526-0.93-4.554-4.604c-0.085-11.085-0.083-22.172-0.004-33.257
			c0.025-3.499,0.891-4.162,4.871-4.172c12.87-0.031,25.739-0.014,38.609-0.014C375.13,171.349,387.617,171.35,400.105,171.35z"/>
	</g>
</g>
<g id="Layer_5" style="display:none;">
	<g style="display:inline;">
		<path style="fill:#A9A9A9;" d="M403.839,42.214c-1.531,1.66-2.64,2.946-3.835,4.148c-16.407,16.497-32.774,33.035-49.296,49.415
			c-2.625,2.603-3.581,5.07-3.236,8.833c1.7,18.486,3.029,37.005,4.522,55.51c0.408,5.063,1.69,6.273,6.802,6.587
			c18.385,1.13,36.766,2.343,55.163,3.222c1.944,0.093,4.417-1.37,5.911-2.852c16.832-16.692,33.53-33.518,50.224-50.35
			c1.223-1.233,2.127-2.783,3.179-4.186c0.61,0.186,1.22,0.371,1.83,0.557c0.827,4.601,2.004,9.17,2.423,13.808
			c2.697,29.849-5.575,56.266-26.015,78.31c-17.67,19.056-39.777,29.426-65.823,30.969c-17.778,1.053-34.652-2.471-50.456-10.725
			c-2.462-1.286-3.939-0.704-5.67,1.152c-14.67,15.723-29.424,31.368-44.114,47.072c-14.689,15.703-29.314,31.466-44.003,47.171
			c-41.468,44.337-82.965,88.646-124.395,133.017c-1.929,2.066-3.75,2.661-6.548,2.107c-16.93-3.355-33.877-6.64-50.869-9.66
			c-4.269-0.759-5.634-2.27-4.799-6.688c2.064-10.918,3.543-21.946,5.564-32.873c0.416-2.251,1.714-4.735,3.37-6.303
			c27.097-25.636,54.321-51.136,81.506-76.679c15.458-14.525,30.907-29.06,46.34-43.611c32.57-30.708,65.084-61.477,97.76-92.071
			c3.252-3.045,3.523-5.316,1.672-9.321C263.44,119.054,301.453,49.11,366.463,39.732C379.17,37.899,393.892,38.772,403.839,42.214z
			"/>
		<path style="fill:#A9A9A9;" d="M348.279,283.288c1.765,1.604,2.967,2.603,4.063,3.707c34.92,35.184,69.808,70.399,104.788,105.523
			c2.357,2.367,3.004,4.546,2.22,7.776c-2.516,10.369-4.565,20.854-7.214,31.187c-0.567,2.211-2.485,4.739-4.483,5.816
			c-18.919,10.196-38.009,20.073-56.993,30.15c-2.271,1.206-3.673,0.731-5.338-0.952c-28.485-28.796-56.987-57.576-85.569-86.275
			c-2.233-2.243-1.487-3.999-0.309-6.185c13.589-25.23,27.143-50.478,40.711-75.719C342.753,293.48,345.375,288.657,348.279,283.288
			z"/>
		<path style="fill:#A9A9A9;" d="M186.755,222.122c-1.232-1.12-2.455-2.105-3.531-3.23c-18.694-19.557-37.412-39.092-56.005-58.745
			c-2.768-2.926-5.756-4.535-9.775-5.092c-9.844-1.366-19.669-2.949-29.412-4.894c-2.609-0.521-5.497-2.137-7.237-4.137
			c-16.506-18.975-32.791-38.143-49.143-57.252c-3.042-3.555-6.02-7.171-9.186-10.613c-1.876-2.039-1.848-3.515,0.164-5.515
			c12.865-12.786,25.658-25.645,38.392-38.562c1.861-1.888,3.125-1.787,5.128-0.166c23.528,19.049,47.162,37.967,70.638,57.08
			c1.746,1.421,3.1,3.935,3.599,6.172c2.292,10.273,4.093,20.655,6.363,30.933c0.503,2.278,1.756,4.745,3.41,6.358
			c20.103,19.602,40.339,39.069,60.567,58.543c1.6,1.54,2.976,2.793,0.752,4.99c-7.493,7.401-14.881,14.908-22.331,22.352
			C188.55,220.944,187.78,221.37,186.755,222.122z"/>
	</g>
</g>
<g id="Layer_6" style="display:none;">
	<g style="display:inline;">
		<path style="fill:#A9A9A9;" d="M251.817,432.206c-76.623,0-153.246,0-229.869-0.001c-1.405,0-2.814,0.054-4.213-0.038
			c-4.681-0.308-7.449-3.127-7.739-7.852c-0.07-1.145-0.031-2.298-0.031-3.447c-0.001-113.53-0.001-227.06,0.002-340.59
			c0-1.404-0.068-2.821,0.086-4.21c0.432-3.893,3.06-6.543,6.952-7.001c1.388-0.163,2.806-0.094,4.21-0.094
			c153.629-0.003,307.259-0.003,460.888,0c1.404,0,2.82-0.066,4.21,0.082c4.084,0.435,6.74,3.142,7.132,7.237
			c0.121,1.267,0.066,2.552,0.066,3.828c0.002,113.658,0.002,227.315,0,340.973c0,1.277,0.056,2.562-0.069,3.828
			c-0.403,4.09-3.077,6.796-7.161,7.204c-1.519,0.152-3.062,0.078-4.594,0.078C405.063,432.207,328.44,432.206,251.817,432.206z
			 M251.821,386.921c62.444,0,124.889,0,187.333-0.001c1.405,0,2.812,0.039,4.214-0.025c3.702-0.169,4.698-1.182,4.866-4.895
			c0.046-1.02,0.02-2.043,0.02-3.064c0.001-85.558,0.001-171.115-0.002-256.673c0-1.404,0.023-2.813-0.076-4.212
			c-0.158-2.23-1.403-3.506-3.638-3.703c-1.142-0.101-2.296-0.091-3.444-0.091c-126.293-0.004-252.587-0.004-378.88,0
			c-6.384,0-6.97,0.611-6.991,7.025c-0.001,0.383,0,0.766,0,1.149c0,85.43,0,170.86,0.001,256.29c0,1.277,0.01,2.554,0.031,3.831
			c0.046,2.787,1.462,4.249,4.256,4.325c1.404,0.038,2.809,0.041,4.213,0.041C126.422,386.921,189.122,386.921,251.821,386.921z"/>
		<path style="fill:#A9A9A9;" d="M352.922,242.532c1.403,1.52,2.393,2.665,3.458,3.735c8.112,8.141,16.28,16.226,24.348,24.41
			c7.853,7.966,9.207,19.186,3.625,28.897c-5.256,9.145-16.21,13.532-26.783,10.756c-4.591-1.205-8.332-3.789-11.634-7.082
			c-7.866-7.846-15.707-15.716-23.567-23.566c-0.982-0.98-2.02-1.904-3.328-3.131c-1.354,1.194-2.617,2.195-3.75,3.326
			c-15.269,15.251-30.823,30.231-45.664,45.888c-9.453,9.972-26.244,10.062-35.817-0.035c-14.844-15.654-30.399-30.634-45.66-45.892
			c-1.065-1.064-2.2-2.058-3.566-3.331c-1.229,1.109-2.282,1.979-3.244,2.939c-7.956,7.936-15.828,15.957-23.858,23.817
			c-8.354,8.176-18.344,10.107-28.074,5.671c-14.358-6.546-18.315-26.059-7.403-37.45c8.213-8.574,16.747-16.841,25.124-25.258
			c1.064-1.069,2.043-2.222,3.33-3.631c-1.123-1.3-2.025-2.482-3.065-3.528c-8.194-8.24-16.488-16.381-24.608-24.692
			c-13.08-13.386-7.197-35.184,10.862-39.82c8.793-2.257,16.699,0.028,23.204,6.531c17.341,17.332,34.666,34.68,51.997,52.022
			c13.178,13.187,26.354,26.378,39.537,39.561c0.981,0.981,2.008,1.916,3.304,3.15c1.349-1.258,2.563-2.322,3.702-3.461
			c30.244-30.252,60.499-60.492,90.701-90.785c6.701-6.721,14.667-9.359,23.78-7.001c17.884,4.628,23.868,26.253,11.03,39.558
			c-8.068,8.361-16.401,16.465-24.6,24.7C355.24,239.896,354.268,241.052,352.922,242.532z"/>
	</g>
</g>
<g id="Layer_7" style="display:none;">
	<g style="display:inline;">
		<path style="fill:#F3327F;" d="M390.982,478.905c-15.448-0.243-30.345-3.875-44.845-9.348
			c-25.647-9.681-48.979-23.659-71.6-38.902c-26.825-18.076-52.182-38.04-76.372-59.514c-19.115-16.969-37.446-34.74-54.801-53.492
			c-32.503-35.118-62.156-72.434-86.239-113.92c-11.951-20.587-22.452-41.865-28.798-64.964
			c-2.756-10.032-4.628-20.211-4.825-30.625c-0.479-25.362,9.712-45.808,28.992-61.914c9.206-7.691,18.944-14.579,30.154-19.177
			c16.895-6.929,31.899-3.908,44.97,8.598c3.731,3.57,7.091,7.591,10.236,11.7c9.811,12.82,19.676,25.61,29.055,38.744
			c6.884,9.641,12.183,20.178,15.2,31.786c4.624,17.795,0.571,33.54-10.538,47.857c-4.056,5.228-8.043,10.549-11.562,16.143
			c-4.118,6.546-6.368,13.872-6.671,21.642c-0.471,12.09,4.607,22.079,12.308,30.931c2.552,2.933,5.376,5.64,8.175,8.348
			c19.284,18.664,38.63,37.264,57.882,55.961c11.594,11.26,23.03,22.683,34.585,33.984c7.95,7.775,17.744,11.595,28.621,12.822
			c16.091,1.815,30.361-2.755,42.241-13.569c12.71-11.57,27.149-13.412,43.069-9.413c12.434,3.123,23.73,8.723,34.442,15.644
			c8.104,5.236,16.233,10.434,24.408,15.558c9.566,5.997,18.771,12.479,26.253,21.01c3.301,3.764,6.347,7.886,8.778,12.253
			c6.55,11.768,6.448,23.945,1.079,36.149c-3.164,7.191-7.645,13.546-12.858,19.383c-9.868,11.048-20.84,20.731-34.131,27.561
			C416.549,476.12,404.147,478.767,390.982,478.905z"/>
	</g>
</g>
<g id="Layer_8" style="display:none;">
	<g style="display:inline;">
		<path style="fill:#A9A9A9;" d="M312.028,237.627c0.45,21.774-3.572,41.66-11.368,60.772c-5.824,14.278-13.786,27.253-23.95,38.953
			c-11.803,13.586-25.813,24.083-42.077,31.61c-10.335,4.784-21.176,8.096-32.474,9.561c-6.639,0.861-13.378,1.563-20.052,1.419
			c-16.704-0.36-32.754-4.026-48.154-10.628c-12.117-5.195-23.209-12.044-33.416-20.298c-6.874-5.559-13.151-11.767-18.978-18.471
			c-9.882-11.369-17.942-23.868-24.4-37.435c-5.429-11.405-9.06-23.426-12.274-35.606c-5.015-19.01-10.193-37.976-15.284-56.965
			c-3.383-12.619-6.758-25.241-10.093-37.873c-1.905-7.215-3.944-14.404-5.524-21.692c-1.733-7.992,1.538-14.28,7.55-19.42
			c1.965-1.68,3.763-3.556,5.632-5.347c6.385-6.117,12.585-12.443,19.2-18.3c7.739-6.854,16.135-12.891,24.861-18.462
			c11.908-7.602,24.492-13.814,37.676-18.881c13.772-5.293,27.999-8.804,42.544-11.021c5.761-0.878,11.603-1.333,17.426-1.66
			c7.325-0.411,14.677-0.827,22.002-0.639c10.804,0.278,21.557,1.385,32.225,3.262c10.065,1.771,19.986,4.059,29.658,7.389
			c0.92,0.317,1.947,0.336,2.928,0.459c8.684,1.092,14.986,5.448,17.628,13.924c2.701,8.666,4.873,17.498,7.237,26.268
			c5.862,21.746,11.772,43.479,17.524,65.253c3.844,14.552,7.684,29.112,11.084,43.772
			C311.522,217.764,312.458,228.192,312.028,237.627z M38.938,140.683c4.115,15.469,8.186,30.854,12.302,46.227
			c5.889,21.992,12.004,43.925,17.659,65.976c4.744,18.501,11.437,36.04,22.645,51.682c7.223,10.082,15.485,19.12,25.289,26.761
			c8.802,6.86,18.278,12.523,28.629,16.682c9.758,3.92,19.917,6.489,30.376,7.212c6.538,0.452,13.175-0.088,19.74-0.566
			c10.677-0.779,20.707-4.071,30.355-8.59c13.766-6.448,25.306-15.714,34.976-27.418c8.5-10.289,14.981-21.708,19.499-34.231
			c3.686-10.217,5.964-20.737,7.072-31.581c1.071-10.476,0.814-20.895-0.416-31.272c-1.335-11.264-4.754-22.109-7.663-33.038
			c-6.048-22.722-12.192-45.418-18.28-68.129c-3.028-11.295-6.045-22.593-9.005-33.906c-0.521-1.993-1.476-3.258-3.561-3.812
			c-3.846-1.022-7.605-2.385-11.464-3.35c-10.499-2.628-21.103-4.691-31.938-5.341c-7.439-0.446-14.873-1.032-22.319-1.292
			c-3.46-0.121-6.947,0.316-10.412,0.623c-5.936,0.526-11.934,0.757-17.776,1.826c-8.424,1.542-16.801,3.463-25.073,5.688
			c-13.663,3.676-26.459,9.537-38.738,16.51c-10.311,5.855-19.881,12.752-28.937,20.428
			C53.708,124.713,46.097,132.184,38.938,140.683z"/>
		<path style="fill:#A9A9A9;" d="M319.59,149.632c-2.234-8.299-4.415-16.399-6.641-24.666c0.905-0.308,1.462-0.663,2.021-0.665
			c10.097-0.037,20.223-0.512,30.283,0.095c10.774,0.649,21.444,2.508,31.992,5.012c18.401,4.368,35.924,11.022,52.664,19.756
			c13.176,6.874,25.469,15.125,37.117,24.342c0.974,0.771,1.772,1.768,2.756,2.523c2.253,1.727,4.43,3.619,6.889,4.997
			c6.907,3.873,10.727,13.605,9.383,20.876c-1.443,7.808-2.332,15.717-3.498,23.577c-1.112,7.492-2.287,14.974-3.4,22.465
			c-0.875,5.895-1.687,11.8-2.546,17.698c-0.876,6.02-1.779,12.037-2.661,18.056c-1.117,7.617-2.248,15.232-3.331,22.853
			c-2.448,17.229-4.615,34.504-10.55,51.024c-6.503,18.102-15.561,34.727-27.968,49.482c-10.832,12.881-23.245,23.932-37.834,32.39
			c-14.124,8.189-29.17,13.84-45.4,16.301c-8.165,1.238-16.351,1.798-24.55,1.31c-14.636-0.871-28.813-3.981-42.241-10.025
			c-9.457-4.256-18.401-9.399-26.574-15.836c-8.451-6.655-16.065-14.146-22.741-22.579c-2.007-2.535-3.901-5.161-5.809-7.773
			c-0.414-0.567-0.664-1.253-1.102-2.099c7.606-2.938,14.986-5.789,22.598-8.729c2.372,2.717,4.876,5.447,7.227,8.303
			c7.058,8.576,15.756,15.16,25.21,20.805c11.48,6.855,23.878,11.045,37.169,12.676c19.936,2.447,38.889-0.691,56.968-9.469
			c13.407-6.509,25.065-15.344,35.031-26.327c13.948-15.372,23.666-33.141,29.29-53.163c2.463-8.767,3.886-17.702,5.141-26.692
			c1.287-9.222,2.78-18.415,4.129-27.629c1.637-11.18,3.191-22.372,4.83-33.551c1.369-9.336,2.814-18.661,4.214-27.992
			c1.068-7.123,2.098-14.251,3.188-21.37c0.411-2.686-0.218-4.845-2.485-6.555c-6.752-5.092-13.252-10.543-20.21-15.331
			c-8.52-5.863-17.642-10.762-26.99-15.227c-15.48-7.395-31.657-12.635-48.493-15.833c-12.5-2.374-25.12-3.455-37.854-3.04
			C323.213,149.677,321.611,149.632,319.59,149.632z"/>
		<path style="fill:#A9A9A9;" d="M154.49,290.556c-5.375,0.486-9.359-4.294-10.009-7.93c-0.942-5.268,1.419-9.968,6.5-11.591
			c6.395-2.043,12.932-3.648,19.418-5.401c15.255-4.121,30.544-8.119,45.759-12.382c4.7-1.317,8.771-1.268,12.348,2.457
			c5.163,5.377,2.836,14.523-4.388,16.541c-10.305,2.879-20.667,5.556-31.001,8.329c-11.296,3.032-22.585,6.091-33.888,9.098
			C157.681,290.089,156.071,290.269,154.49,290.556z"/>
		<path style="fill:#A9A9A9;" d="M206.062,151.953c4.361,0,8.723-0.087,13.081,0.024c4.594,0.117,9.191,0.318,13.773,0.669
			c6.5,0.498,13.423,9.334,8.863,18.11c-2.207,4.247-5.91,6.474-10.594,6.475c-8.205,0.001-16.409-0.376-24.615-0.529
			c-4.982-0.093-9.968-0.151-14.949-0.062c-5.088,0.092-8.6-2.451-10.823-6.659c-2.237-4.234-2.063-8.704,0.543-12.796
			c2.315-3.635,5.921-5.204,10.144-5.272c4.858-0.077,9.718-0.018,14.577-0.018C206.062,151.915,206.062,151.934,206.062,151.953z"
			/>
		<path style="fill:#A9A9A9;" d="M84.512,198.62c-0.195-4.497,1.656-7.838,5.197-9.943c11.023-6.552,22.167-12.9,33.24-19.367
			c2.343-1.368,4.793-1.899,7.495-1.803c4.77,0.168,7.943,2.522,9.816,6.784c1.931,4.393,1.72,8.793-1.719,12.137
			c-2.804,2.728-6.315,4.8-9.708,6.837c-8.431,5.064-16.992,9.91-25.464,14.906c-5.682,3.351-11.747,2.906-15.782-1.283
			C85.3,204.512,84.205,201.705,84.512,198.62z"/>
	</g>
</g>
<g id="Layer_9" style="display:none;">
	<g style="display:inline;">
		<path style="fill:#A9A9A9;" d="M393.285,352.167c-16.421,0-32.303,0-48.712,0c0,40.27,0,80.272,0,120.552
			c-107.969,0-215.413,0-322.809,0c-0.769-3.202-0.958-188.628-0.189-193.734c4.553-1.861,9.274-3.83,14.025-5.724
			c37.19-14.829,74.386-29.643,111.579-44.463c32.168-12.817,64.334-25.637,96.503-38.451c4.093-1.63,4.113-1.617,4.113-6.178
			c0.004-49.297,0.002-98.594,0.002-147.891c0-1.87,0-3.741,0-6.232c1.49,0.622,2.474,0.885,3.302,1.4
			c12.866,8.002,25.714,16.033,38.561,24.065c17.55,10.972,35.096,21.95,52.642,32.928c20.069,12.557,40.141,25.109,60.202,37.679
			c16.393,10.271,32.764,20.578,49.162,30.843c9.517,5.958,19.068,11.861,28.599,17.797c0.454,0.283,0.86,0.643,1.461,1.096
			c0,98.75,0,197.575,0,296.915c-9.764,0.49-19.456,0.155-29.135,0.216c-9.751,0.062-19.502,0.014-29.253,0.014
			c-9.741,0-19.481,0-29.744,0c-0.113-1.791-0.295-3.341-0.297-4.892c-0.02-18.012-0.013-36.025-0.013-54.037
			c0-18.96,0-37.92,0-56.88C393.285,355.608,393.285,354.025,393.285,352.167z M320.21,448.375c0-1.738,0-3.186,0-4.635
			c0-10.833,0-21.666,0-32.498c0-26.27-0.004-52.539,0.011-78.809c0.001-1.556,0.154-3.111,0.231-4.571
			c8.292-0.909,93.348-0.512,96.541,0.502c0,4.326,0,8.776,0,13.226c0,4.469,0,8.937,0,13.406s0,8.937,0,13.406
			c0,4.469,0,8.937,0,13.406c0,4.333,0,8.666,0,12.999c0,4.469,0,8.937,0,13.406c0,4.469,0,8.937,0,13.406
			c0,4.469-0.052,8.938,0.015,13.405c0.066,4.411-0.307,8.85,0.258,13.149c5.283,0.871,37.14,0.633,40.322-0.348
			c0-1.613,0-3.349,0-5.085c0-82.329,0-164.659,0-246.988c0-0.812-0.076-1.633,0.013-2.436c0.258-2.32-0.788-3.722-2.755-4.912
			c-17.24-10.436-34.416-20.977-51.643-31.434c-18.615-11.299-37.288-22.502-55.893-33.818
			c-22.764-13.846-45.479-27.773-68.228-41.646c-2.276-1.388-4.634-2.642-7.3-4.154c0,123.94,0,247.344,0,371.024
			C287.839,448.375,303.624,448.375,320.21,448.375z M247.515,218.489c-67.701,25.712-134.779,51.188-201.592,76.563
			c-0.799,5.762-0.572,150.141,0.159,153.101c3.924,0.782,28.304,0.678,31.869-0.261c0-10.529,0-21.191,0-31.854
			c0-10.697,0-21.395,0-32.092s-0.009-21.395,0.002-32.092c0.011-10.646-0.052-21.293,0.044-32.163c45.966,0,91.375,0,137.323,0
			c0,1.84,0,3.426,0,5.011c0,22.613,0,45.227,0,67.84c0,17.062-0.007,34.123,0.012,51.185c0.002,1.554,0.176,3.108,0.27,4.65
			c10.899,0,21.267,0,31.913,0C247.515,371.816,247.515,295.525,247.515,218.489z M102.558,387.891
			c0.813,0.245,1.191,0.459,1.57,0.46c27.983,0.034,55.967,0.052,83.95,0.057c0.666,0,1.333-0.152,1.996-0.258
			c0.113-0.018,0.21-0.156,0.31-0.244c0.101-0.089,0.195-0.185,0.282-0.269c0.675-5.844,0.454-12.494-0.501-15.148
			c-6.506-0.769-84.529-0.445-87.607,0.427C102.558,377.799,102.558,382.746,102.558,387.891z M102.593,420.32
			c4.765,0.976,84.814,0.766,88.241-0.312c0.189-4.875,0.23-9.904-0.015-14.837c-4.907-0.844-84.981-0.667-88.226,0.168
			C102.593,410.216,102.593,415.165,102.593,420.32z M190.711,344.441c-0.569-0.292-0.802-0.517-1.037-0.517
			c-27.575-0.059-55.15-0.105-82.726-0.136c-1.209-0.001-2.418,0.138-3.626,0.228c-0.115,0.009-0.227,0.128-0.329,0.21
			c-0.106,0.084-0.198,0.184-0.568,0.533c-0.029,3.446-0.425,7.151,0.24,10.742c5.156,0.764,84.828,0.568,88.046-0.213
			C190.711,351.756,190.711,348.16,190.711,344.441z M190.711,437.147c-0.553-0.297-0.785-0.53-1.017-0.531
			c-27.449-0.063-54.897-0.113-82.346-0.146c-1.344-0.002-2.688,0.144-4.031,0.237c-0.113,0.008-0.223,0.136-0.326,0.218
			c-0.105,0.084-0.2,0.182-0.3,0.273c-0.65,4.525-0.519,8.324,0.38,11.083c4.659,0.726,84.423,0.527,87.639-0.281
			C190.711,444.467,190.711,440.867,190.711,437.147z"/>
		<path style="fill:#A9A9A9;" d="M368.995,266.655c-21.641,1.026-40.619-17.342-40.66-40.017
			c-0.04-22.029,17.853-40.474,40.533-40.472c22.065,0.002,40.135,18.68,40.21,40.324
			C409.153,248.542,389.603,267.95,368.995,266.655z M352.707,226.736c-0.158,9.242,7.227,16.109,15.925,15.99
			c8.891-0.122,15.926-5.576,16.234-16.232c0.288-9.947-8.682-16.004-16.066-16.012
			C359.742,210.471,352.695,217.539,352.707,226.736z"/>
	</g>
</g>
<g id="Layer_10">
	<g>
		<path style="fill:#A9A9A9;" d="M313.893,376.939c-2.487,0-4.133,0-5.779,0c-43.857,0-87.714,0.007-131.571-0.021
			c-2.134-0.001-12.562-0.843-15.217-0.388c-0.079,1.512-0.234,3.11-0.235,4.708c-0.014,30.437-0.01,60.874-0.011,91.311
			c0,6.481-0.003,6.483-6.306,6.486c-5.396,0.002-10.791,0.016-16.187-0.005c-4.744-0.018-4.978-0.229-4.985-4.884
			c-0.02-13.558-0.007-27.117-0.007-40.675c0-17.155,0-34.311,0-51.466c0-1.637,0-3.275,0-5.34
			c-42.306-5.884-75.168-26.266-97.56-62.461c-14.154-22.879-20.218-48.151-18.425-74.877
			c3.581-53.378,38.075-98.814,90.254-115.593c28.389-9.129,56.908-8.331,84.918,2.147c27.87,10.426,49.478,28.661,65.729,54.41
			c23.194-51.809,46.122-103.021,68.999-154.123c0.506,0.05,0.647,0.036,0.764,0.083c0.124,0.05,0.262,0.136,0.329,0.245
			c0.29,0.47,0.6,0.934,0.825,1.436c51.854,115.931,103.701,231.864,155.535,347.804c0.097,0.216-0.01,0.524-0.039,1.191
			c-47.378,0-94.776,0-142.634,0c-0.099,1.971-0.249,3.57-0.25,5.168c-0.014,29.745-0.01,59.49-0.011,89.236
			c0,7.704-0.001,7.704-7.904,7.704c-4.842,0-9.685,0.014-14.527-0.004c-5.107-0.019-5.699-0.599-5.7-5.755
			c-0.011-30.16-0.005-60.32-0.005-90.481C313.893,381.036,313.893,379.279,313.893,376.939z M161.11,347.961
			c2.379-0.23,4.146-0.246,5.847-0.591c16.406-3.326,31.249-10.021,44.201-20.72c10.436-8.62,19.262-18.588,25.653-30.613
			c6.091-11.46,10.17-23.5,11.601-36.479c1.114-10.1,0.896-20.089-0.755-30.089c-1.985-12.021-6.449-23.129-12.405-33.668
			c-4.584-8.111-10.393-15.369-17.073-21.783c-5.865-5.632-12.33-10.63-19.451-14.712c-15.157-8.689-31.461-13.29-48.889-13.978
			c-6.507-0.257-12.931,0.545-19.357,1.512c-13.762,2.072-26.371,7.157-38.031,14.581c-8.775,5.587-16.597,12.296-23.285,20.38
			c-6.672,8.064-12.075,16.816-16.11,26.44c-5.587,13.325-7.779,27.192-7.577,41.652c0.209,14.962,3.636,29.013,10.2,42.308
			c6.111,12.378,14.358,23.129,24.897,32.222c12.85,11.087,27.536,18.328,43.891,22.329c2.715,0.664,5.554,1.825,8.832,0.669
			c0.095-1.149,0.269-2.348,0.281-3.548c0.038-3.735-0.15-7.479,0.064-11.202c0.181-3.147-0.839-5.415-3.112-7.659
			c-14.77-14.574-29.41-29.28-44.052-43.983c-1.845-1.853-3.581-3.848-5.139-5.948c-2.846-3.836-3.861-8.238-3.236-12.952
			c0.747-5.625,5.378-9.539,11.083-9.82c6.278-0.309,11.28,2.293,15.563,6.527c8.461,8.363,16.837,16.812,25.261,25.213
			c0.943,0.94,1.968,1.796,3.58,3.258c0-2.139,0-3.48,0-4.821c0-13.003-0.017-26.007,0.023-39.01
			c0.005-1.584,0.322-3.167,0.521-5.002c1.779-0.099,3.134-0.232,4.489-0.239c4.98-0.026,9.96-0.011,14.94-0.01
			c1.383,0,2.77-0.056,4.149,0.023c2.639,0.152,3.15,0.65,3.342,3.173c0.073,0.963,0.022,1.936,0.022,2.904
			c0.001,12.727,0,25.454,0.001,38.18c0,1.336,0,2.672,0,4.799c1.608-1.468,2.632-2.334,3.578-3.278
			c8.619-8.597,17.245-17.187,25.824-25.824c3.554-3.578,7.752-5.856,12.784-6.134c7.692-0.425,12.955,3.835,13.399,11.405
			c0.306,5.224-1.553,9.774-5.111,13.577c-2.267,2.423-4.669,4.721-7.016,7.068c-13.596,13.597-27.21,27.176-40.761,40.819
			c-1.109,1.117-2.483,2.63-2.547,4.013C160.951,335.009,161.11,341.084,161.11,347.961z M342.03,348.822
			c0.948,0.327,1.328,0.572,1.708,0.572c31.953,0.039,63.905,0.062,95.858,0.071c0.958,0,1.916-0.146,2.872-0.243
			c0.121-0.012,0.241-0.135,0.339-0.23c0.093-0.091,0.157-0.213,0.234-0.321c-1.149-4.533-112.414-249.751-115.276-252.977
			c-0.396,0.595-4.652,9.783-6.481,13.807c-7.148,15.724-14.325,31.435-21.484,47.155c-8.476,18.612-16.92,37.238-25.446,55.827
			c-0.912,1.989-1.136,3.752-0.596,5.94c2.356,9.543,3.224,19.3,3.435,29.101c0.068,3.153-0.32,6.332-0.707,9.474
			c-0.774,6.284-1.213,12.661-2.632,18.805c-6.344,27.469-19.95,50.694-41.36,69.212c-1.325,1.146-2.533,2.426-3.795,3.644
			c0.099,0.272,0.198,0.545,0.297,0.818c9.33,0,18.66,0,27.991,0c9.544,0,19.089,0.063,28.633-0.018
			c9.322-0.079,18.663,0.365,28.274-0.313c0-2.014,0-3.521,0-5.029c0-14.524-0.002-29.048,0.004-43.573
			c0-1.244-0.035-2.497,0.098-3.729c0.204-1.902,1.202-3.037,3.27-2.955c0.828,0.033,1.66-0.006,2.49-0.006
			c5.533-0.001,11.066-0.007,16.599,0.001c5.667,0.009,5.667,0.015,5.678,5.873c0.002,0.83,0,1.66,0,2.49
			c0,13.971,0,27.942,0,41.913C342.03,345.638,342.03,347.147,342.03,348.822z"/>
	</g>
</g>
</svg>
