<?xml version="1.0" encoding="iso-8859-1"?>
<!-- Generator: Adobe Illustrator 21.0.2, SVG Export Plug-In . SVG Version: 6.00 Build 0)  -->
<svg version="1.1" xmlns="http://www.w3.org/2000/svg" xmlns:xlink="http://www.w3.org/1999/xlink" x="0px" y="0px"
	 viewBox="0 0 500 500" style="enable-background:new 0 0 500 500;" xml:space="preserve">
<g id="Layer_1" style="display:none;">
	<g style="display:inline;">
		<path d="M39.102,207.317c-0.217-2.189-0.541-3.945-0.542-5.7c-0.027-53.363-0.022-106.726-0.022-160.21
			c0.925-0.819,1.916-1.696,3.24-2.868c1.73,0,3.99,0,6.25,0c51.223,0,102.446-0.001,153.67,0.003c1.793,0,3.645-0.26,5.603,1.376
			c0.166,1.022,0.614,2.501,0.615,3.981c0.036,53.631,0.03,107.261,0.028,160.892c0,0.128-0.025,0.257-0.018,0.191
			c-0.602,1.013-1.114,1.873-1.572,2.643c-0.38,0.145-0.611,0.31-0.842,0.31c-53.631,0.011-107.261,0.016-160.892-0.013
			C42.987,207.921,41.355,207.573,39.102,207.317z"/>
		<path d="M41.348,462.458c-1.09-1.09-1.941-1.941-2.81-2.81c0-53.744-0.005-107.506,0.027-161.268
			c0.001-1.364,0.41-2.728,0.61-3.976c1.573-1.084,3.111-1.382,4.838-1.381c53.497,0.034,106.994,0.027,160.49,0.027
			c0.518,0,1.037,0,1.395,0c1.902,1.628,2.074,3.603,2.071,5.76c-0.037,32.767-0.026,65.534-0.026,98.3
			c0,19.794,0.013,39.588-0.025,59.381c-0.003,1.625-0.358,3.25-0.513,4.57c-1.886,1.491-3.69,1.405-5.505,1.405
			C148.405,462.455,94.908,462.458,41.348,462.458z M162.114,338.952c-26.134,0-51.911,0-77.681,0
			c-0.572,14.071-0.341,74.28,0.268,77.603c25.802,0,51.579,0,77.413,0C162.114,390.639,162.114,364.861,162.114,338.952z"/>
		<path d="M461.847,207.212c-1.922,0.288-3.411,0.704-4.899,0.705c-52.828,0.033-105.656,0.034-158.484-0.001
			c-1.471-0.001-2.941-0.433-4.673-0.705c-0.269-1.696-0.709-3.177-0.71-4.659c-0.035-52.828-0.035-105.656-0.002-158.484
			c0.001-1.478,0.41-2.957,0.593-4.192c1.821-1.516,3.653-1.341,5.456-1.341c53.497,0.003,106.994,0.003,160.528,0.003
			c0.915,0.933,1.849,1.885,2.802,2.856c0,53.46,0.005,106.956-0.023,160.453C462.433,203.48,462.086,205.113,461.847,207.212z
			 M416.624,84.443c-26.139,0-51.915,0-77.684,0c-0.585,15.073-0.346,74.275,0.28,77.598c25.802,0,51.578,0,77.404,0
			C416.624,136.121,416.624,110.343,416.624,84.443z"/>
		<path d="M294.32,461.912c-0.577-1.178-0.849-1.735-1.27-2.593c0-53.535-0.005-107.429,0.028-161.323
			c0.001-1.233,0.421-2.466,0.614-3.523c1.601-1.557,3.408-1.433,5.217-1.433c52.561,0.011,105.121,0.003,157.682,0.034
			c1.62,0.001,3.241,0.381,5.094,0.613c0.287,1.746,0.741,3.223,0.742,4.701c0.036,53.761,0.031,107.522,0.031,161.083
			c-1.017,1.088-1.926,2.061-2.789,2.984c-53.592,0-107.089,0.005-160.586-0.023C297.455,462.433,295.826,462.085,294.32,461.912z
			 M338.956,338.885c0,26.139,0,51.915,0,77.684c15.213,0.586,74.274,0.347,77.597-0.282c0-25.803,0-51.578,0-77.402
			C390.633,338.885,364.854,338.885,338.956,338.885z"/>
	</g>
</g>
<g id="Layer_2" style="display:none;">
	<g style="display:inline;">
		<path style="fill:#5B5B5B;" d="M175.644,78.446c0,15.931,0,31.405,0,46.777c-5.238,3.59-10.909,6.386-16.059,10.149
			c-4.216,3.081-8.186,6.494-12.524,9.409c-0.688,0.462-1.207,1.175-1.804,1.773c-3.882,3.882-7.78,7.747-11.641,11.649
			c-6.211,6.277-11.309,13.429-16.217,20.728c-4.325,6.433-8.017,13.212-11.271,20.245c-2.079,4.492-3.895,9.083-5.639,13.712
			c-1.752,4.652-3.031,9.446-4.48,14.188c-0.576,1.885-1.039,3.815-1.394,5.754c-0.675,3.689-1.255,7.406-1.89,11.089
			c-0.398,2.309-0.149,4.668-0.741,6.839c-1.196,4.384-0.641,8.79-0.744,13.185c-0.102,4.361,0.163,8.738-0.105,13.085
			c-0.124,2.018,1.027,3.644,0.944,5.568c-0.079,1.826-0.489,3.836,0.115,5.439c0.614,1.63,0.247,3.32,0.819,4.724
			c0.656,1.61,0.577,3.16,0.773,4.756c0.192,1.564,0.607,3.109,1.031,4.632c0.419,1.505,1.212,2.94,1.424,4.463
			c0.658,4.731,2.419,9.117,3.935,13.584c2.475,7.294,5.696,14.256,9.235,21.091c3.846,7.427,8.595,14.239,13.374,21.085
			c6.307,9.035,14.007,16.743,21.947,24.201c6.366,5.98,13.395,11.276,20.864,15.833c6.021,3.674,12.058,7.388,18.561,10.21
			c7.528,3.267,15.189,6.262,23.054,8.527c4.15,1.196,8.406,2.296,12.755,2.958c3.708,0.564,7.401,1.219,11.111,1.774
			c2.73,0.409,5.517,0.079,8.104,0.733c5.932,1.5,11.904,0.714,17.827,0.637c4.086-0.053,8.179-0.95,12.32-0.72
			c1.716-1.192,3.681-0.702,5.56-0.871c1.725-0.155,3.444-0.467,5.139-0.832c3.875-0.835,7.774-1.639,11.594-2.626
			c4.779-1.235,9.479-2.873,14.146-4.546c7.243-2.597,14.257-5.7,21.083-9.253c7.414-3.859,14.404-8.35,21.06-13.411
			c3.368-2.561,6.495-5.402,9.801-7.999c3.635-2.855,6.87-6.07,9.98-9.396c7.109-7.603,13.547-15.748,19.174-24.543
			c4.953-7.741,8.881-15.998,12.785-24.273c1.495-3.17,2.972-6.426,3.814-9.803c0.828-3.318,2.1-6.489,2.977-9.79
			c1.111-4.18,1.561-8.512,3.079-12.627c0.91-2.467,0.81-5.349,0.915-8.055c0.075-1.911,1.289-3.538,0.951-5.57
			c-0.296-1.781-0.443-3.75,0.007-5.461c1.591-6.054,0.448-12.174,0.721-18.251c0.076-1.697-0.624-3.415-0.758-5.14
			c-0.141-1.819,0.302-3.735-0.101-5.471c-0.855-3.682-1.009-7.45-1.7-11.125c-0.73-3.882-1.63-7.759-2.603-11.586
			c-0.96-3.775-2.261-7.491-3.499-11.205c-2.642-7.922-5.918-15.576-9.865-22.938c-3.054-5.697-6.364-11.244-10.154-16.478
			c-2.765-3.819-5.611-7.577-8.556-11.273c-5.43-6.815-11.781-12.717-18.098-18.586c-5.958-5.536-12.742-10.193-19.699-14.496
			c-3.012-1.863-6.068-3.652-9.284-5.583c0-15.039,0-30.34,0-46.063c0.96,0.261,1.853,0.358,2.606,0.733
			c4.781,2.379,9.812,4.192,14.51,6.791c6.332,3.502,12.65,7.003,18.616,11.107c4.604,3.168,9.218,6.324,13.765,9.572
			c1.768,1.263,3.435,2.691,5.027,4.173c5.094,4.74,10.212,9.458,15.16,14.348c3.144,3.107,6.124,6.402,8.962,9.793
			c6.534,7.807,12.39,16.132,17.855,24.705c1.452,2.278,2.969,4.589,4.053,7.169c1.31,3.119,3.478,5.87,4.885,8.958
			c2.48,5.44,4.924,10.895,7.112,16.48c1.714,4.374,3.104,8.846,4.712,13.245c1.941,5.31,3.033,10.874,4.335,16.376
			c0.709,2.995,0.952,6.061,1.707,9.007c0.516,2.011,0.146,4.291,0.932,5.923c1.025,2.127,0.024,4.188,0.732,6.044
			c1.341,3.519,0.133,7.19,0.87,10.633c1.481,6.921,0.441,13.862,0.707,20.783c0.076,1.981-0.616,3.98-0.759,5.984
			c-0.14,1.961,0.467,4.116-0.156,5.865c-0.779,2.187-0.271,4.384-0.816,6.425c-0.538,2.015-0.319,4.103-0.851,5.981
			c-0.939,3.313-1.236,6.736-2.17,10.053c-0.745,2.643-1.221,5.397-1.845,8.098c-1.242,5.382-2.812,10.667-4.599,15.854
			c-3.953,11.47-9.07,22.472-14.996,33.045c-3.618,6.456-7.398,12.843-12.048,18.688c-3.109,3.908-5.953,8.012-9.198,11.842
			c-1.777,2.097-3.682,4.062-5.488,6.123c-1.898,2.166-3.651,4.479-5.703,6.487c-3.865,3.783-7.749,7.575-11.897,11.037
			c-7.418,6.193-15.057,12.146-23.232,17.302c-7.295,4.601-14.965,8.58-22.767,12.289c-8.487,4.035-17.232,7.328-26.168,10.256
			c-4.342,1.423-8.933,1.951-13.138,3.953c-1.394,0.664-3.377,0.455-5.094,0.913c-2.191,0.584-4.833,0.118-6.684,1.161
			c-2.069,1.167-4.341-0.26-6.268,1.336c-0.751,0.622-2.462-0.008-3.712,0.134c-1.167,0.132-2.323,0.832-3.451,0.761
			c-5.277-0.33-10.406,1.258-15.7,0.96c-5.192-0.292-10.415-0.156-15.62-0.036c-4.564,0.106-9.012-0.951-13.582-1.048
			c-3.668-0.078-7.364-1.316-11.128-1.514c-1.837-1.846-4.653,0.175-6.498-1.644c-2.335,0.205-4.43-1.421-6.808-0.895
			c-3.326-2.058-7.296-2.018-10.864-3.333c-3.548-1.308-7.325-2.028-10.811-3.469c-9.381-3.878-18.847-7.617-27.692-12.65
			c-6.172-3.512-12.322-7.103-18.202-11.074c-4.473-3.021-8.403-6.836-12.758-10.049c-7.175-5.294-13.412-11.59-19.544-17.982
			c-4.426-4.614-8.371-9.664-12.383-14.657c-3.377-4.202-6.491-8.544-9.432-13.029c-2.384-3.635-4.75-7.297-6.849-11.098
			c-2.837-5.138-5.431-10.412-8.092-15.646c-1.951-3.837-3.214-7.962-4.895-11.906c-1.746-4.097-3.098-8.297-4.393-12.541
			c-1.149-3.762-2.247-7.532-3.155-11.359c-0.547-2.304-1.022-4.633-1.715-6.893c-0.697-2.275-0.736-4.656-1.525-6.956
			c-0.622-1.81-0.531-3.952-0.869-5.956c-0.659-3.901-0.33-7.973-1.025-11.865c-1.563-8.743-0.385-17.518-0.749-26.267
			c-0.107-2.575-0.038-5.12,0.73-7.699c0.723-2.431-0.646-5.213,0.898-7.669c0.254-0.404,0.026-1.104,0.037-1.667
			c0.036-1.753-0.109-3.45,0.762-5.181c0.688-1.369-0.614-3.329,0.926-4.677c-0.394-4.805,1.678-9.169,2.648-13.706
			c1.307-6.113,3.353-12.066,5.438-17.991c3.733-10.602,8.374-20.77,13.769-30.616c3.362-6.136,7.031-12.085,11.084-17.78
			c2.733-3.84,5.677-7.536,8.552-11.274c6.815-8.864,14.754-16.653,22.872-24.213c4.601-4.285,9.69-8.137,14.835-11.873
			c4.215-3.061,8.62-5.818,12.859-8.826c5.785-4.105,12.254-7.023,18.588-10.155C167.083,82.459,171.21,80.557,175.644,78.446z"/>
		<path style="fill:#5B5B5B;" d="M228.608,203.405c-0.196-1.967-0.541-3.813-0.542-5.659c-0.029-54.457-0.023-108.914-0.023-163.615
			c0.627-0.498,1.391-1.105,2.474-1.965c13.83,0,28.164,0,42.849,0c0.401,0.539,0.983,1.32,1.978,2.656
			c-0.119-0.531-0.011-0.274-0.011-0.016c0.007,54.316,0.013,108.633-0.016,162.949c-0.001,1.846-0.348,3.691-0.545,5.65
			C259.348,203.405,244.331,203.405,228.608,203.405z"/>
	</g>
</g>
<g id="Layer_3" style="display:none;">
	<g style="display:inline;">
		<path style="fill:#A9A9A9;" d="M253.758,21.459c38.74,0.781,69.099,14.109,93.219,40.866
			c16.914,18.762,26.533,41.006,29.679,66.06c2.339,18.626-0.55,36.706-5.63,54.567c-10.378,36.484-27.567,69.439-51.433,98.887
			c-14.816,18.281-31.787,34.346-50.802,48.216c-7.969,5.813-17.083,5.671-25.067-0.269c-32.719-24.34-59.047-54.242-78.636-90.076
			c-11.573-21.171-20.241-43.443-25.792-66.891c-8.88-37.508-2.521-72.258,20.71-103.149c19.209-25.542,45.03-41.046,76.678-46.366
			C243.214,22.207,249.871,21.866,253.758,21.459z M201.204,142.067c-0.672,28.404,22.384,55.683,55.282,55.662
			c31.183-0.02,54.987-24.69,55.356-54.84c0.38-31.034-25.28-55.71-55.172-55.798C225.676,86.999,200.694,112.877,201.204,142.067z"
			/>
		<path style="fill:#A9A9A9;" d="M97.05,238.439c6.477,12.678,12.75,24.956,19.233,37.647c-1.541,0.702-2.727,1.314-3.964,1.795
			c-13.62,5.293-26.811,11.472-38.194,20.762c-4.676,3.816-9.03,8.265-12.657,13.084c-10.517,13.973-8.565,30.359,2.907,43.333
			c7.062,7.986,15.519,14.207,24.84,19.262c22.273,12.078,46.206,19.416,70.978,24.01c14.412,2.673,28.949,4.818,43.51,6.5
			c15.962,1.844,32.045,2.277,48.121,1.954c12.599-0.253,25.227-0.231,37.782-1.154c17.252-1.268,34.399-3.563,51.399-6.965
			c19.488-3.899,38.575-9.058,56.849-16.933c14.728-6.346,28.701-13.94,39.564-26.14c6.354-7.136,10.466-15.148,10.186-25.131
			c-0.257-9.168-4.299-16.485-10.074-23.091c-7.309-8.36-16.347-14.513-26.073-19.675c-4.646-2.466-9.482-4.571-14.217-6.871
			c-0.958-0.465-1.847-1.075-2.967-1.735c7.36-12.034,14.561-23.808,22.049-36.052c5.293,2.684,10.544,5.112,15.571,7.94
			c14.565,8.195,28.051,17.831,39.415,30.226c11.516,12.561,19.628,26.822,21.571,44.019c1.223,10.824-0.692,21.263-4.952,31.263
			c-7.107,16.683-19.161,29.347-33.184,40.308c-18.088,14.138-38.5,24.021-59.9,31.976c-25.431,9.454-51.715,15.628-78.556,19.201
			c-13.834,1.842-27.807,2.833-41.751,3.606c-12.435,0.689-24.94,1.147-37.369,0.625c-15.604-0.656-31.199-2.072-46.73-3.778
			c-23.743-2.608-46.985-7.789-69.728-15.12c-28.163-9.078-54.861-21.099-77.768-40.248c-11.56-9.663-21.487-20.804-27.76-34.798
			c-9.837-21.945-7.385-42.885,5.043-63.017c6.933-11.231,16.171-20.391,26.43-28.517c14.106-11.173,29.817-19.651,46.281-26.788
			C94.06,239.451,95.24,239.094,97.05,238.439z"/>
	</g>
</g>
<g id="Layer_4">
	<g>
		<path style="fill:#A9A9A9;" d="M263.082,159.02c0.37,14.185-2.723,27.82-6.65,41.324c-9.961,34.254-26.404,65.094-48.991,92.653
			c-13.226,16.138-28.345,30.332-45.046,42.836c-6.613,4.951-14.944,5.157-22.08-0.081c-6.666-4.893-13.169-10.077-19.289-15.633
			c-20.246-18.381-37.336-39.381-50.893-63.161c-14.837-26.025-25.684-53.599-29.999-83.34
			c-3.345-23.054,0.701-45.194,11.118-66.074C60.693,88.62,74.328,73.407,92.277,62.2c14.708-9.183,30.67-14.771,48.022-16.425
			c26.549-2.531,50.984,3.5,72.936,18.472c27.696,18.888,43.753,45.329,48.988,78.387c0.378,2.388,0.713,4.798,0.825,7.209
			C263.189,152.896,263.082,155.96,263.082,159.02z M100.113,158.436c-1.098,26.349,20.219,52.352,50.894,52.507
			c28.988,0.146,51.419-23.152,51.589-51.638c0.189-31.533-25.723-52.425-51.103-52.488
			C122.362,106.744,99.408,131.74,100.113,158.436z"/>
		<path style="fill:#A9A9A9;" d="M256.288,437.585c-71.907,0-143.813,0-215.72,0c-0.765,0-1.53,0.001-2.295,0
			c-6.133-0.01-6.138-0.01-6.141-6.2c-0.004-10.327-0.016-20.654,0.007-30.981c0.01-4.436,0.426-4.826,4.773-4.89
			c0.765-0.011,1.53-0.003,2.295-0.003c144.706,0,289.411,0,434.117,0c7.099,0,7.1,0.002,7.101,7.167
			c0.001,9.69,0.006,19.379-0.002,29.069c-0.005,5.749-0.083,5.835-5.739,5.836c-33.786,0.005-67.572,0.003-101.358,0.003
			C334.314,437.585,295.301,437.585,256.288,437.585z"/>
		<path style="fill:#A9A9A9;" d="M378.55,325.253c-31.237,0-62.474,0-93.711,0c-1.02,0-2.04,0.015-3.06-0.006
			c-4.005-0.081-4.667-0.655-4.694-4.698c-0.061-9.052-0.025-18.105-0.023-27.157c0-2.04-0.075-4.086,0.063-6.118
			c0.198-2.921,1.107-3.788,4.021-4.04c1.14-0.099,2.293-0.053,3.441-0.053c62.729-0.002,125.458-0.003,188.187-0.001
			c7.609,0,7.652,0.05,7.653,7.672c0.001,9.69,0.011,19.38-0.005,29.07c-0.008,5.074-0.26,5.325-5.482,5.326
			C442.809,325.257,410.68,325.253,378.55,325.253z"/>
		<path style="fill:#A9A9A9;" d="M400.105,171.35c24.465,0,48.93,0,73.396,0c1.019,0,2.04-0.03,3.058,0.015
			c3.171,0.14,3.813,0.689,3.84,3.858c0.065,7.9,0.027,15.8,0.028,23.7c0,3.44,0.061,6.883-0.031,10.321
			c-0.087,3.223-0.904,3.975-4.15,4.143c-1.017,0.053-2.038,0.02-3.058,0.02c-48.93,0.001-97.861,0.001-146.791,0
			c-0.892,0-1.785,0.02-2.676-0.01c-3.565-0.121-4.526-0.93-4.554-4.604c-0.085-11.085-0.083-22.172-0.004-33.257
			c0.025-3.499,0.891-4.162,4.871-4.172c12.87-0.031,25.739-0.014,38.609-0.014C375.13,171.349,387.617,171.35,400.105,171.35z"/>
	</g>
</g>
</svg>
