<svg width="23" height="28" viewBox="0 0 23 28" fill="none" xmlns="http://www.w3.org/2000/svg">
<path d="M9.7749 4.87667C10.0923 4.87667 10.3499 4.61534 10.3499 4.29334V2.33334C10.3499 1.6905 10.8662 1.16667 11.4999 1.16667C12.1335 1.16667 12.6499 1.6905 12.6499 2.33334V4.29334C12.6499 4.61534 12.9075 4.87667 13.2249 4.87667C13.5423 4.87667 13.7999 4.6165 13.7999 4.29334V2.33334C13.7999 1.0465 12.7683 0 11.4999 0C10.2314 0 9.1999 1.0465 9.1999 2.33334V4.29334C9.1999 4.6165 9.4575 4.87667 9.7749 4.87667Z" fill="black"/>
<path d="M11.4999 28C13.7194 28 15.5249 26.1683 15.5249 23.9167C15.5249 23.5947 15.2673 23.3333 14.9499 23.3333C14.6325 23.3333 14.3749 23.5947 14.3749 23.9167C14.3749 25.5243 13.0846 26.8333 11.4999 26.8333C9.91519 26.8333 8.6249 25.5243 8.6249 23.9167C8.6249 23.5947 8.3673 23.3333 8.0499 23.3333C7.73249 23.3333 7.4749 23.5947 7.4749 23.9167C7.4749 26.1683 9.28039 28 11.4999 28Z" fill="black"/>
<path d="M1.725 24.5H21.275C22.226 24.5 23 23.7148 23 22.75C23 22.2378 22.7803 21.7537 22.3962 21.42C20.5839 19.866 19.55 17.605 19.55 15.211V11.6667C19.55 7.16334 15.939 3.5 11.5 3.5C7.061 3.5 3.45 7.16334 3.45 11.6667V15.211C3.45 17.6062 2.41615 19.866 0.612951 21.4118C0.219651 21.7537 0 22.2378 0 22.75C0 23.7148 0.7728 24.5 1.725 24.5ZM11.5 4.66667C15.3054 4.66667 18.4 7.80617 18.4 11.6667V15.211C18.4 17.9503 19.5822 20.5345 21.6442 22.3032C21.7764 22.4175 21.85 22.5797 21.85 22.75C21.85 23.072 21.5924 23.3333 21.275 23.3333H1.725C1.4076 23.3333 1.15 23.072 1.15 22.75C1.15 22.5797 1.2236 22.4175 1.35125 22.3067C3.41665 20.5345 4.6 17.9492 4.6 15.211V11.6667C4.6 7.80617 7.69465 4.66667 11.5 4.66667Z" fill="black"/>
</svg>
