<?xml version="1.0" encoding="iso-8859-1"?>
<!-- Generator: Adobe Illustrator 21.0.2, SVG Export Plug-In . SVG Version: 6.00 Build 0)  -->
<svg version="1.1" xmlns="http://www.w3.org/2000/svg" xmlns:xlink="http://www.w3.org/1999/xlink" x="0px" y="0px"
	 viewBox="0 0 500 500" style="enable-background:new 0 0 500 500;" xml:space="preserve">
<g id="Layer_1" style="display:none;">
	<g style="display:inline;">
		<path style="fill:#5E6870;" d="M236.362,115.701c39.616-0.002,79.232-0.019,118.847,0.006c18.133,0.012,27.38,8.902,26.293,27.129
			c-1.094,18.346-3.6,36.611-5.606,54.899c-2.257,20.577-4.641,41.139-6.98,61.707c-2.74,24.096-5.496,48.19-8.232,72.287
			c-2.288,20.154-4.573,40.308-6.83,60.465c-3.001,26.804-5.841,53.627-9.028,80.408c-1.186,9.971-10.008,16.311-22.082,16.351
			c-25.991,0.085-51.983,0.028-77.974,0.029c-30.812,0-61.625,0.009-92.437-0.004c-16.202-0.007-22.931-5.216-24.943-20.894
			c-3.034-23.638-5.372-47.366-8.04-71.052c-2.738-24.309-5.526-48.613-8.276-72.921c-2.702-23.891-5.372-47.787-8.077-71.678
			c-2.752-24.307-5.526-48.612-8.3-72.917c-1.375-12.048-3.085-24.068-4.08-36.147c-1.37-16.637,8.964-27.624,25.639-27.648
			C156.292,115.664,196.327,115.703,236.362,115.701z M270.749,153.733c-47.588,0-94.169,0-141.382,0
			c1.919,14.434,3.757,28.297,5.606,42.158c3.537,26.51,7.07,53.022,10.626,79.53c4,29.818,8.032,59.632,12.034,89.45
			c3.529,26.301,7.256,52.578,10.398,78.925c0.794,6.653,3.655,7.887,9.683,7.852c41.279-0.234,82.561-0.122,123.841-0.126
			c1.466,0,3.239,0.457,4.33-0.197c1.788-1.072,4.143-2.684,4.483-4.417c1.246-6.341,1.829-12.819,2.536-19.259
			c4.312-39.268,8.5-78.551,12.903-117.809c5.241-46.736,10.672-93.45,15.975-140.179c0.598-5.268,0.898-10.569,1.355-16.085
			c-16.985,0-33.038,0-48.604,0c-2.511,8.429-4.883,16.408-7.264,24.384c-4.722,15.815-9.355,31.657-14.22,47.429
			c-2.05,6.645-8.636,9.84-14.953,7.708c-6.436-2.172-8.893-6.952-6.952-13.775c1.543-5.424,3.218-10.81,4.834-16.214
			C260.815,186.941,265.651,170.775,270.749,153.733z"/>
		<path style="fill:#5E6870;" d="M303.145,95.699c-8.547-0.035-12.943-5.86-10.509-14.156c3.349-11.415,6.969-22.751,10.24-34.187
			c4.392-15.354,15.191-23.291,30.293-25.214c28.992-3.692,58.067-6.741,87.107-10.054c6.925-0.79,13.517,3.836,13.881,9.735
			c0.338,5.48-4.709,9.951-11.685,10.738c-28.42,3.206-56.822,6.577-85.249,9.72c-7.073,0.782-10.597,4.669-12.43,11.247
			c-3.08,11.053-6.663,21.964-9.916,32.97C313.124,92.433,309.56,95.825,303.145,95.699z"/>
		<path style="fill:#5E6870;" d="M236.453,427.548c-12.574,0.008-25.148,0.06-37.722-0.008c-9.489-0.051-13.346-4.236-14.025-13.771
			c-2.288-32.14-4.866-64.259-7.207-96.396c-1.521-20.871-2.945-41.75-4.164-62.64c-0.482-8.264,3.661-12.438,11.944-13.945
			c18.01-3.275,35.389,0.558,52.761,4.376c15.198,3.341,30.464,5.285,46.073,4.252c11.53-0.763,16.401,4.731,15.502,16.371
			c-2.16,27.954-4.155,55.92-6.233,83.881c-1.659,22.327-3.302,44.654-5.04,66.975c-0.512,6.584-5.175,10.775-12.283,10.854
			C262.859,427.643,249.655,427.539,236.453,427.548z"/>
	</g>
</g>
<g id="Layer_2" style="display:none;">
	<g style="display:inline;">
		<path style="fill:#5E6870;" d="M322.886,266.967c-8.518-1.677-17.304-2.542-25.487-5.237c-10.038-3.306-17.405-1.605-24.616,6.376
			c-60.455,66.907-121.177,133.571-181.785,200.34c-13.657,15.045-31.345,18.665-48.579,9.742
			c-16.347-8.464-25.071-27.036-19.96-45.604c1.777-6.457,5.938-13.164,10.893-17.702
			c66.671-61.069,133.565-121.897,200.729-182.424c8.974-8.087,10.962-15.687,7.541-27.394c-9.042-30.943-2.806-59.189,20.08-82.46
			c38.313-38.957,80.816-72.836,126.883-102.228c7.27-4.638,13.649-4.107,17.521,1.332c3.762,5.283,2.058,11.31-4.283,17.254
			c-31.942,29.942-63.792,59.983-95.685,89.977c-4.455,4.19-8.072,8.817-7.151,15.395c0.851,6.077,4.174,10.435,9.948,12.775
			c6.52,2.641,12.033,0.631,16.925-3.815c17.165-15.601,34.297-31.238,51.445-46.858c16.798-15.301,33.551-30.652,50.424-45.868
			c7.298-6.581,16.07-5.058,19.037,3.067c2.026,5.548-0.84,9.483-4.327,13.305c-24.886,27.276-49.735,54.584-74.596,81.882
			c-5.737,6.299-11.57,12.515-17.193,18.915c-6.91,7.866-6.902,16.338-0.207,22.727c6.502,6.204,15.608,5.938,22.662-1.472
			c30.348-31.883,60.487-63.965,90.766-95.914c2.391-2.522,5.099-6.166,7.962-6.472c3.933-0.421,9.091,0.737,12.034,3.221
			c4.49,3.79,3.633,9.359,0.309,14.138c-12.29,17.669-23.598,36.145-37.172,52.769c-20.928,25.63-42.992,50.378-65.395,74.744
			C366.153,258.283,345.873,265.837,322.886,266.967z"/>
		<path style="fill:#5E6870;" d="M133.423,256.516C87.725,201.955,46.655,145.967,31.467,75.395
			c-1.683-7.82-2.311-15.869-3.38-23.818c-0.783-5.822,0.347-11.011,5.987-13.937c6.073-3.15,10.742-0.392,15.096,3.985
			c21.86,21.977,43.809,43.866,65.728,65.785c22.588,22.588,45.076,45.278,67.853,67.674c4.378,4.304,5.641,8.789,6.337,14.781
			c1.609,13.853-2.967,23.354-14.303,31.677C160.55,231.991,147.687,244.311,133.423,256.516z"/>
		<path style="fill:#5E6870;" d="M263.888,352.382c15.033-16.905,29.775-33.482,44.823-50.405c1.786,1.442,3.31,2.459,4.581,3.73
			c36.986,37.004,74.019,73.961,110.874,111.095c14.653,14.764,13.564,40.394-1.918,54.892
			c-15.631,14.638-41.312,14.389-54.944-1.031c-33.862-38.304-67.489-76.817-101.2-115.255
			C265.491,354.708,264.997,353.905,263.888,352.382z"/>
	</g>
</g>
<g id="Layer_3" style="display:none;">
	<g style="display:inline;">
		<path style="fill:#5E6870;" d="M92.55,251.718c0-72.106-0.001-144.212,0.002-216.318c0-9.952,2.005-11.945,12.023-11.946
			c98.363-0.003,196.727-0.003,295.09,0c10.074,0,12.075,1.971,12.076,11.892c0.003,144.01,0.003,288.021,0,432.031
			c0,10.406-1.856,12.248-12.33,12.248c-98.161,0.002-196.322,0.002-294.483,0c-10.504,0-12.375-1.844-12.376-12.195
			C92.548,395.526,92.55,323.622,92.55,251.718z M129.845,250.919c0,61.213-0.007,122.426,0.008,183.638
			c0.002,8.17,0.053,8.194,7.884,8.195c76.364,0.006,152.729-0.078,229.093,0.151c6.424,0.019,7.713-2.238,7.707-8.015
			c-0.121-122.223-0.087-244.447-0.101-366.671c-0.001-7.875-0.066-7.892-8.184-7.893c-75.758-0.005-151.517-0.004-227.275-0.002
			c-9.108,0-9.128,0.007-9.129,9.382C129.84,130.11,129.843,190.515,129.845,250.919z"/>
		<path style="fill:#5E6870;" d="M252.522,252.398c42.008,0.069,75.708,33.88,75.598,75.849
			c-0.108,41.452-34.514,75.132-76.653,75.037c-41.311-0.093-75.343-34.348-75.297-75.789
			C176.217,285.813,210.26,252.329,252.522,252.398z M301.244,328.154c0.472-26.812-21.245-49.174-48.195-49.627
			c-27.016-0.454-49.433,20.982-50.008,47.818c-0.594,27.716,20.791,50.016,48.501,50.576
			C278.582,377.468,300.759,355.708,301.244,328.154z"/>
		<path style="fill:#5E6870;" d="M251.923,202.202c-26.461,0.004-47.902-21.278-47.881-47.525
			c0.022-26.352,21.354-47.685,47.72-47.72c27.195-0.037,48.573,21.201,48.486,48.166
			C300.163,181.227,278.638,202.198,251.923,202.202z M273.512,154.558c-0.03-11.821-9.845-21.594-21.554-21.462
			c-11.535,0.13-21.02,9.654-21.151,21.237c-0.134,11.85,9.451,21.663,21.227,21.732
			C263.785,176.134,273.542,166.364,273.512,154.558z"/>
		<path style="fill:#5E6870;" d="M252.344,347.635c-11.513,0.059-20.453-8.703-20.423-20.014
			c0.029-10.975,8.865-19.714,20.028-19.809c11.422-0.098,20.488,8.789,20.423,20.018
			C272.307,338.874,263.505,347.578,252.344,347.635z"/>
	</g>
</g>
<g id="Layer_4">
	<g>
		<path style="fill:#5E6870;" d="M249.847,27.992c125.042,1.015,223.036,100.134,222.515,223.22
			c-0.523,123.665-99.498,221.776-222.984,221.281c-123.981-0.497-221.782-99.812-221.294-222.968
			C28.572,126.206,127,29.267,249.847,27.992z M249.953,436.849c102.775-0.786,186.361-81.673,186.532-186.215
			c0.17-104.119-82.802-186.391-185.996-186.539c-103.154-0.148-186.381,81.84-186.535,186.003
			C63.8,354.186,146.713,435.709,249.953,436.849z"/>
		<path style="fill:#5E6870;" d="M225.263,348.642c-12.553,0-23.828,0-35.606,0c0-65.457,0-130.661,0-196.523
			c1.942-0.1,3.884-0.286,5.825-0.288c22.25-0.02,44.504-0.298,66.747,0.078c17.896,0.303,34.928,4.374,49.428,15.538
			c19.961,15.369,27.433,36.134,23.596,60.565c-3.657,23.282-17.629,39.319-39.303,47.723c-9.412,3.649-19.848,5.278-29.972,6.303
			c-10.616,1.075-21.416,0.331-32.136,0.375c-8.552,0.035-8.568,0.03-8.575,8.86c-0.012,16.586-0.004,33.172-0.004,49.758
			C225.263,343.397,225.263,345.763,225.263,348.642z M225.29,216.914c0,8.696,0.027,17.393-0.015,26.089
			c-0.015,3.031,0.713,4.988,4.389,4.932c12.738-0.197,25.531,0.45,38.197-0.563c6.175-0.494,12.607-3.093,18.056-6.24
			c11.06-6.389,15.657-18.427,12.607-30.763c-3.307-13.375-12.971-20.945-25.694-22.546c-14.544-1.83-29.402-1.274-44.126-1.346
			c-1.133-0.006-3.194,3.19-3.267,4.96C225.091,199.918,225.282,208.42,225.29,216.914z"/>
	</g>
</g>
</svg>
