<?xml version="1.0" encoding="iso-8859-1"?>
<!-- Generator: Adobe Illustrator 21.0.2, SVG Export Plug-In . SVG Version: 6.00 Build 0)  -->
<svg version="1.1" id="Layer_1" xmlns="http://www.w3.org/2000/svg" xmlns:xlink="http://www.w3.org/1999/xlink" x="0px" y="0px"
	 viewBox="0 0 38 48.97" style="enable-background:new 0 0 38 48.97;" xml:space="preserve">
<path id="pin" style="fill:#AAAAAA;" d="M18.99-0.01c-8.76,0-19,4.9-19,18.69c0,13.36,16.55,28.97,17.26,29.63
	c0.988,0.894,2.492,0.894,3.48,0c0.71-0.66,17.26-16.27,17.26-29.63C37.99,4.89,27.76-0.01,18.99-0.01z M18.99,43.23
	C14.88,38.99,4.95,27.79,4.95,18.68c0-12.99,10.75-14,14.04-14s14.04,1.01,14.04,14C33.03,27.77,23.1,38.99,18.99,43.23z M19,12.53
	c3.145,0.133,5.588,2.79,5.455,5.935c-0.132,3.145-2.79,5.588-5.935,5.455c-3.054-0.129-5.463-2.643-5.46-5.7
	C13.132,15.01,15.79,12.464,19,12.53z"/>
</svg>
