<?xml version="1.0" encoding="iso-8859-1"?>
<!-- Generator: Adobe Illustrator 21.0.2, SVG Export Plug-In . SVG Version: 6.00 Build 0)  -->
<svg version="1.1" id="Layer_1" xmlns="http://www.w3.org/2000/svg" xmlns:xlink="http://www.w3.org/1999/xlink" x="0px" y="0px"
	 viewBox="0 0 90 90" style="enable-background:new 0 0 90 90;" xml:space="preserve">
<path id="profile" style="fill:#CCCCCC;" d="M65.76,66.82c0-0.05,0-0.09-0.01-0.14c0,0-0.01,0.01-0.01,0.02
	c0,0.32-0.02,0.64-0.05,0.96c0.06-0.35,0.08-0.58,0.08-0.58C65.77,66.99,65.77,66.91,65.76,66.82z M65.76,66.82
	c-0.01-0.04-0.01-0.08-0.02-0.12c0,0.32-0.02,0.64-0.05,0.96c0.06-0.35,0.08-0.58,0.08-0.58C65.77,66.99,65.77,66.91,65.76,66.82z
	 M65.76,66.82c0-0.05,0-0.09-0.01-0.14c0,0-0.01,0.01-0.01,0.02c0,0.32-0.02,0.64-0.05,0.96c0.06-0.35,0.08-0.58,0.08-0.58
	C65.77,66.99,65.77,66.91,65.76,66.82z M65.76,66.82c0-0.05,0-0.09-0.01-0.14c0,0-0.01,0.01-0.01,0.02c0,0.32-0.02,0.64-0.05,0.96
	c0.06-0.35,0.08-0.58,0.08-0.58C65.77,66.99,65.77,66.91,65.76,66.82z M65.76,66.82c0-0.05,0-0.09-0.01-0.14
	c0,0-0.01,0.01-0.01,0.02c0,0.32-0.02,0.64-0.05,0.96c0.06-0.35,0.08-0.58,0.08-0.58C65.77,66.99,65.77,66.91,65.76,66.82z"/>
<g>
	<path style="fill:#CCCCCC;" d="M45,0C32.58,0,21.32,5.04,13.18,13.18S0,32.58,0,45c0,24.85,20.15,45,45,45s45-20.15,45-45
		S69.85,0,45,0z M65.69,67.66c0.03-0.32,0.05-0.64,0.05-0.96c0-0.01,0.01-0.02,0.01-0.02c0.01,0.05,0.01,0.09,0.01,0.14
		c0.01,0.09,0.01,0.17,0.01,0.26C65.77,67.08,65.75,67.31,65.69,67.66z M66.86,75.47L65.73,64.7h-0.07
		C64.7,55.53,55.81,48.34,45,48.34S25.3,55.53,24.34,64.7h-0.06l-1.13,10.78C13.67,68.67,7.5,57.56,7.5,45
		C7.5,24.29,24.29,7.5,45,7.5S82.5,24.29,82.5,45C82.5,57.55,76.33,68.67,66.86,75.47z"/>
	<path style="fill:#CCCCCC;" d="M53.68,31.94c0.04,4.74-3.76,8.61-8.5,8.65c-4.74,0.04-8.61-3.76-8.65-8.5v-0.08
		c-0.02-4.71,3.78-8.55,8.5-8.57C49.77,23.4,53.64,27.2,53.68,31.94z"/>
</g>
</svg>
