<?xml version="1.0" encoding="iso-8859-1"?>
<!-- Generator: Adobe Illustrator 21.0.2, SVG Export Plug-In . SVG Version: 6.00 Build 0)  -->
<svg version="1.1" id="Layer_1" xmlns="http://www.w3.org/2000/svg" xmlns:xlink="http://www.w3.org/1999/xlink" x="0px" y="0px"
	 viewBox="0 0 80 68" style="enable-background:new 0 0 80 68;" xml:space="preserve">
<path id="saved" style="fill:#CCCCCC;" d="M76.5,0h-73C1.57,0,0,1.57,0,3.5v0.88c0.01,1.93,1.57,3.49,3.5,3.49h73
	c1.93,0,3.49-1.56,3.5-3.49V3.5C80,1.57,78.43,0,76.5,0z M40.5,55.19h-37c-1.93,0-3.5,1.57-3.5,3.5v0.87c0,1.93,1.57,3.5,3.5,3.5h37
	c1.93,0,3.5-1.57,3.5-3.5v-0.87C44,56.76,42.43,55.19,40.5,55.19z M40.5,27.59h-37c-1.93,0-3.5,1.57-3.5,3.5v0.88
	c0,1.93,1.57,3.5,3.5,3.5h37c1.93,0,3.5-1.57,3.5-3.5v-0.88C44,29.16,42.43,27.59,40.5,27.59z"/>
<path style="fill:#CCCCCC;" d="M76,29.62v35.15c0,1.79-1.04,3.23-2.33,3.23c-0.7,0-1.33-0.43-1.75-1.11
	C71.78,66.91,64,58.34,64,58.34s-7.74,8.57-7.86,8.56c-0.44,0.67-1.07,1.1-1.78,1.1c-1.3,0-2.36-1.45-2.36-3.23V29.62
	c0-2.76,2.24-4.99,5-4.99h14C73.76,24.63,76,26.86,76,29.62z"/>
</svg>
