<?xml version="1.0" encoding="iso-8859-1"?>
<!-- Generator: Adobe Illustrator 21.0.2, SVG Export Plug-In . SVG Version: 6.00 Build 0)  -->
<svg version="1.1" id="Layer_1" xmlns="http://www.w3.org/2000/svg" xmlns:xlink="http://www.w3.org/1999/xlink" x="0px" y="0px"
	 viewBox="0 0 51.59 52.59" style="enable-background:new 0 0 51.59 52.59;" xml:space="preserve">
<path style="fill:#AAAAAA;" d="M37.39,34.14C40.27,30.54,42,25.97,42,21C42,9.4,32.6,0,21,0C15.2,0,9.95,2.35,6.15,6.15
	C2.35,9.95,0,15.2,0,21c0,11.6,9.4,21,21,21c4.46,0,8.59-1.39,11.99-3.76l14.37,14.37l4.25-4.25L37.39,34.14z M6,21
	c0-4.14,1.68-7.89,4.4-10.6C13.11,7.68,16.86,6,21,6c8.28,0,15,6.72,15,15c0,8.28-6.72,15-15,15S6,29.28,6,21z"/>
</svg>
