<?xml version="1.0" encoding="iso-8859-1"?>
<!-- Generator: Adobe Illustrator 21.0.2, SVG Export Plug-In . SVG Version: 6.00 Build 0)  -->
<svg version="1.1" id="Layer_1" xmlns="http://www.w3.org/2000/svg" xmlns:xlink="http://www.w3.org/1999/xlink" x="0px" y="0px"
	 viewBox="0 0 58 41" style="enable-background:new 0 0 58 41;" xml:space="preserve">
<path id="sidelist" style="fill:#AAAAAA;" d="M3,17h52c1.657,0,3,1.343,3,3s-1.343,3-3,3H3c-1.657,0-3-1.343-3-3S1.343,17,3,17z
	 M3,35h28c1.657,0,3,1.343,3,3s-1.343,3-3,3H3c-1.657,0-3-1.343-3-3S1.343,35,3,35z M3,0h42c1.657,0,3,1.343,3,3s-1.343,3-3,3H3
	C1.343,6,0,4.657,0,3S1.343,0,3,0z"/>
</svg>
