<?xml version="1.0" encoding="iso-8859-1"?>
<!-- Generator: Adobe Illustrator 21.0.2, SVG Export Plug-In . SVG Version: 6.00 Build 0)  -->
<svg version="1.1" xmlns="http://www.w3.org/2000/svg" xmlns:xlink="http://www.w3.org/1999/xlink" x="0px" y="0px"
	 viewBox="0 0 500 500" style="enable-background:new 0 0 500 500;" xml:space="preserve">
<g id="Layer_1" style="display:none;">
	<g style="display:inline;">
		<path style="fill:#5E6870;" d="M236.362,115.701c39.616-0.002,79.232-0.019,118.847,0.006c18.133,0.012,27.38,8.902,26.293,27.129
			c-1.094,18.346-3.6,36.611-5.606,54.899c-2.257,20.577-4.641,41.139-6.98,61.707c-2.74,24.096-5.496,48.19-8.232,72.287
			c-2.288,20.154-4.573,40.308-6.83,60.465c-3.001,26.804-5.841,53.627-9.028,80.408c-1.186,9.971-10.008,16.311-22.082,16.351
			c-25.991,0.085-51.983,0.028-77.974,0.029c-30.812,0-61.625,0.009-92.437-0.004c-16.202-0.007-22.931-5.216-24.943-20.894
			c-3.034-23.638-5.372-47.366-8.04-71.052c-2.738-24.309-5.526-48.613-8.276-72.921c-2.702-23.891-5.372-47.787-8.077-71.678
			c-2.752-24.307-5.526-48.612-8.3-72.917c-1.375-12.048-3.085-24.068-4.08-36.147c-1.37-16.637,8.964-27.624,25.639-27.648
			C156.292,115.664,196.327,115.703,236.362,115.701z M270.749,153.733c-47.588,0-94.169,0-141.382,0
			c1.919,14.434,3.757,28.297,5.606,42.158c3.537,26.51,7.07,53.022,10.626,79.53c4,29.818,8.032,59.632,12.034,89.45
			c3.529,26.301,7.256,52.578,10.398,78.925c0.794,6.653,3.655,7.887,9.683,7.852c41.279-0.234,82.561-0.122,123.841-0.126
			c1.466,0,3.239,0.457,4.33-0.197c1.788-1.072,4.143-2.684,4.483-4.417c1.246-6.341,1.829-12.819,2.536-19.259
			c4.312-39.268,8.5-78.551,12.903-117.809c5.241-46.736,10.672-93.45,15.975-140.179c0.598-5.268,0.898-10.569,1.355-16.085
			c-16.985,0-33.038,0-48.604,0c-2.511,8.429-4.883,16.408-7.264,24.384c-4.722,15.815-9.355,31.657-14.22,47.429
			c-2.05,6.645-8.636,9.84-14.953,7.708c-6.436-2.172-8.893-6.952-6.952-13.775c1.543-5.424,3.218-10.81,4.834-16.214
			C260.815,186.941,265.651,170.775,270.749,153.733z"/>
		<path style="fill:#5E6870;" d="M303.145,95.699c-8.547-0.035-12.943-5.86-10.509-14.156c3.349-11.415,6.969-22.751,10.24-34.187
			c4.392-15.354,15.191-23.291,30.293-25.214c28.992-3.692,58.067-6.741,87.107-10.054c6.925-0.79,13.517,3.836,13.881,9.735
			c0.338,5.48-4.709,9.951-11.685,10.738c-28.42,3.206-56.822,6.577-85.249,9.72c-7.073,0.782-10.597,4.669-12.43,11.247
			c-3.08,11.053-6.663,21.964-9.916,32.97C313.124,92.433,309.56,95.825,303.145,95.699z"/>
		<path style="fill:#5E6870;" d="M236.453,427.548c-12.574,0.008-25.148,0.06-37.722-0.008c-9.489-0.051-13.346-4.236-14.025-13.771
			c-2.288-32.14-4.866-64.259-7.207-96.396c-1.521-20.871-2.945-41.75-4.164-62.64c-0.482-8.264,3.661-12.438,11.944-13.945
			c18.01-3.275,35.389,0.558,52.761,4.376c15.198,3.341,30.464,5.285,46.073,4.252c11.53-0.763,16.401,4.731,15.502,16.371
			c-2.16,27.954-4.155,55.92-6.233,83.881c-1.659,22.327-3.302,44.654-5.04,66.975c-0.512,6.584-5.175,10.775-12.283,10.854
			C262.859,427.643,249.655,427.539,236.453,427.548z"/>
	</g>
</g>
<g id="Layer_2" style="display:none;">
	<g style="display:inline;">
		<path style="fill:#5E6870;" d="M322.886,266.967c-8.518-1.677-17.304-2.542-25.487-5.237c-10.038-3.306-17.405-1.605-24.616,6.376
			c-60.455,66.907-121.177,133.571-181.785,200.34c-13.657,15.045-31.345,18.665-48.579,9.742
			c-16.347-8.464-25.071-27.036-19.96-45.604c1.777-6.457,5.938-13.164,10.893-17.702
			c66.671-61.069,133.565-121.897,200.729-182.424c8.974-8.087,10.962-15.687,7.541-27.394c-9.042-30.943-2.806-59.189,20.08-82.46
			c38.313-38.957,80.816-72.836,126.883-102.228c7.27-4.638,13.649-4.107,17.521,1.332c3.762,5.283,2.058,11.31-4.283,17.254
			c-31.942,29.942-63.792,59.983-95.685,89.977c-4.455,4.19-8.072,8.817-7.151,15.395c0.851,6.077,4.174,10.435,9.948,12.775
			c6.52,2.641,12.033,0.631,16.925-3.815c17.165-15.601,34.297-31.238,51.445-46.858c16.798-15.301,33.551-30.652,50.424-45.868
			c7.298-6.581,16.07-5.058,19.037,3.067c2.026,5.548-0.84,9.483-4.327,13.305c-24.886,27.276-49.735,54.584-74.596,81.882
			c-5.737,6.299-11.57,12.515-17.193,18.915c-6.91,7.866-6.902,16.338-0.207,22.727c6.502,6.204,15.608,5.938,22.662-1.472
			c30.348-31.883,60.487-63.965,90.766-95.914c2.391-2.522,5.099-6.166,7.962-6.472c3.933-0.421,9.091,0.737,12.034,3.221
			c4.49,3.79,3.633,9.359,0.309,14.138c-12.29,17.669-23.598,36.145-37.172,52.769c-20.928,25.63-42.992,50.378-65.395,74.744
			C366.153,258.283,345.873,265.837,322.886,266.967z"/>
		<path style="fill:#5E6870;" d="M133.423,256.516C87.725,201.955,46.655,145.967,31.467,75.395
			c-1.683-7.82-2.311-15.869-3.38-23.818c-0.783-5.822,0.347-11.011,5.987-13.937c6.073-3.15,10.742-0.392,15.096,3.985
			c21.86,21.977,43.809,43.866,65.728,65.785c22.588,22.588,45.076,45.278,67.853,67.674c4.378,4.304,5.641,8.789,6.337,14.781
			c1.609,13.853-2.967,23.354-14.303,31.677C160.55,231.991,147.687,244.311,133.423,256.516z"/>
		<path style="fill:#5E6870;" d="M263.888,352.382c15.033-16.905,29.775-33.482,44.823-50.405c1.786,1.442,3.31,2.459,4.581,3.73
			c36.986,37.004,74.019,73.961,110.874,111.095c14.653,14.764,13.564,40.394-1.918,54.892
			c-15.631,14.638-41.312,14.389-54.944-1.031c-33.862-38.304-67.489-76.817-101.2-115.255
			C265.491,354.708,264.997,353.905,263.888,352.382z"/>
	</g>
</g>
<g id="Layer_3" style="display:none;">
	<g style="display:inline;">
		<path style="fill:#5E6870;" d="M92.55,251.718c0-72.106-0.001-144.212,0.002-216.318c0-9.952,2.005-11.945,12.023-11.946
			c98.363-0.003,196.727-0.003,295.09,0c10.074,0,12.075,1.971,12.076,11.892c0.003,144.01,0.003,288.021,0,432.031
			c0,10.406-1.856,12.248-12.33,12.248c-98.161,0.002-196.322,0.002-294.483,0c-10.504,0-12.375-1.844-12.376-12.195
			C92.548,395.526,92.55,323.622,92.55,251.718z M129.845,250.919c0,61.213-0.007,122.426,0.008,183.638
			c0.002,8.17,0.053,8.194,7.884,8.195c76.364,0.006,152.729-0.078,229.093,0.151c6.424,0.019,7.713-2.238,7.707-8.015
			c-0.121-122.223-0.087-244.447-0.101-366.671c-0.001-7.875-0.066-7.892-8.184-7.893c-75.758-0.005-151.517-0.004-227.275-0.002
			c-9.108,0-9.128,0.007-9.129,9.382C129.84,130.11,129.843,190.515,129.845,250.919z"/>
		<path style="fill:#5E6870;" d="M252.522,252.398c42.008,0.069,75.708,33.88,75.598,75.849
			c-0.108,41.452-34.514,75.132-76.653,75.037c-41.311-0.093-75.343-34.348-75.297-75.789
			C176.217,285.813,210.26,252.329,252.522,252.398z M301.244,328.154c0.472-26.812-21.245-49.174-48.195-49.627
			c-27.016-0.454-49.433,20.982-50.008,47.818c-0.594,27.716,20.791,50.016,48.501,50.576
			C278.582,377.468,300.759,355.708,301.244,328.154z"/>
		<path style="fill:#5E6870;" d="M251.923,202.202c-26.461,0.004-47.902-21.278-47.881-47.525
			c0.022-26.352,21.354-47.685,47.72-47.72c27.195-0.037,48.573,21.201,48.486,48.166
			C300.163,181.227,278.638,202.198,251.923,202.202z M273.512,154.558c-0.03-11.821-9.845-21.594-21.554-21.462
			c-11.535,0.13-21.02,9.654-21.151,21.237c-0.134,11.85,9.451,21.663,21.227,21.732
			C263.785,176.134,273.542,166.364,273.512,154.558z"/>
		<path style="fill:#5E6870;" d="M252.344,347.635c-11.513,0.059-20.453-8.703-20.423-20.014
			c0.029-10.975,8.865-19.714,20.028-19.809c11.422-0.098,20.488,8.789,20.423,20.018
			C272.307,338.874,263.505,347.578,252.344,347.635z"/>
	</g>
</g>
<g id="Layer_4" style="display:none;">
	<g style="display:inline;">
		<path style="fill:#5E6870;" d="M249.847,27.992c125.042,1.015,223.036,100.134,222.515,223.22
			c-0.523,123.665-99.498,221.776-222.984,221.281c-123.981-0.497-221.782-99.812-221.294-222.968
			C28.572,126.206,127,29.267,249.847,27.992z M249.953,436.849c102.775-0.786,186.361-81.673,186.532-186.215
			c0.17-104.119-82.802-186.391-185.996-186.539c-103.154-0.148-186.381,81.84-186.535,186.003
			C63.8,354.186,146.713,435.709,249.953,436.849z"/>
		<path style="fill:#5E6870;" d="M225.263,348.642c-12.553,0-23.828,0-35.606,0c0-65.457,0-130.661,0-196.523
			c1.942-0.1,3.884-0.286,5.825-0.288c22.25-0.02,44.504-0.298,66.747,0.078c17.896,0.303,34.928,4.374,49.428,15.538
			c19.961,15.369,27.433,36.134,23.596,60.565c-3.657,23.282-17.629,39.319-39.303,47.723c-9.412,3.649-19.848,5.278-29.972,6.303
			c-10.616,1.075-21.416,0.331-32.136,0.375c-8.552,0.035-8.568,0.03-8.575,8.86c-0.012,16.586-0.004,33.172-0.004,49.758
			C225.263,343.397,225.263,345.763,225.263,348.642z M225.29,216.914c0,8.696,0.027,17.393-0.015,26.089
			c-0.015,3.031,0.713,4.988,4.389,4.932c12.738-0.197,25.531,0.45,38.197-0.563c6.175-0.494,12.607-3.093,18.056-6.24
			c11.06-6.389,15.657-18.427,12.607-30.763c-3.307-13.375-12.971-20.945-25.694-22.546c-14.544-1.83-29.402-1.274-44.126-1.346
			c-1.133-0.006-3.194,3.19-3.267,4.96C225.091,199.918,225.282,208.42,225.29,216.914z"/>
	</g>
</g>
<g id="Layer_5" style="display:none;">
	<g style="display:inline;">
		<path style="fill:#5E6870;" d="M325.624,165.483c37.436,38.337,74.438,76.229,112.167,114.867
			c-2.297,0.188-3.651,0.396-5.005,0.396C383.456,280.763,282.273,281.55,281,281c-1.432-0.618-24.807-23.254-35.618-33.422
			c-0.296,0.278-1.632,1.452-2.875,2.717c-8.53,8.674-16.967,17.441-25.584,26.029c-5.917,5.897-14.765,6.301-20.799,1.245
			c-6.198-5.193-7.452-14.336-2.79-21.175c1.115-1.636,2.545-3.077,3.937-4.503c50.999-52.224,102.015-104.431,153.013-156.656
			c5.874-6.015,12.395-9.318,21.358-9.134c25.821,0.531,51.66,0.274,77.491,0.102c4.259-0.028,6.019,0.998,5.791,5.553
			c-0.342,6.816-0.344,13.674,0,20.49c0.231,4.578-1.576,5.564-5.812,5.533c-23.997-0.175-47.997-0.01-71.994-0.164
			c-3.652-0.023-6.207,1.059-8.719,3.672c-12.935,13.455-26.042,26.745-39.077,40.105
			C328.174,162.568,327.114,163.829,325.624,165.483z"/>
		<path style="fill:#5E6870;" d="M257.022,309.161c73.816,0,147.632-0.002,221.447,0.002c7.176,0,7.18,0.016,7.184,7.179
			c0.004,8.831-0.098,17.664,0.046,26.493c0.06,3.672-1.382,5.268-5.029,4.935c-0.991-0.09-1.998-0.01-2.998-0.01
			c-147.132,0-294.263,0-441.395-0.001c-7.928,0-7.929-0.005-7.93-7.968c-0.002-7.998-0.008-15.996,0.002-23.994
			c0.008-6.606,0.017-6.632,6.726-6.632C109.057,309.159,183.039,309.161,257.022,309.161z"/>
		<path style="fill:#5E6870;" d="M299.954,414.654c-59.309,0-118.619,0.001-177.928-0.002c-6.929,0-7.023-0.081-7.04-6.898
			c-0.022-8.497-0.023-16.993,0-25.49c0.018-6.777,0.109-6.856,7.104-6.856c98.793-0.003,197.587-0.002,296.38-0.002
			c20.159,0,40.317-0.008,60.475,0.005c6.35,0.004,6.697,0.374,6.706,6.898c0.011,8.497,0.012,16.993-0.001,25.49
			c-0.01,6.446-0.397,6.85-6.769,6.85c-55.311,0.007-110.622,0.004-165.933,0.004C308.617,414.654,304.285,414.654,299.954,414.654z
			"/>
		<path style="fill:#5E6870;" d="M252.941,128.46c0.059,25.552-20.067,46.136-45.202,46.23c-25.599,0.096-46.374-20.33-46.44-45.659
			c-0.066-25.566,20.29-46.388,45.615-46.659C232.118,82.103,252.882,102.894,252.941,128.46z"/>
	</g>
</g>
<g id="Layer_6" style="display:none;">
	<g style="display:inline;">
		<path style="fill:#5E6870;" d="M57.512,226.566c-11.895-12.248-23.554-24.253-35.287-36.334
			C130.471,49.217,361.706,37.101,484.376,189.99c-11.759,12.201-23.468,24.349-35.363,36.691
			c-50.496-62.26-115.365-95.771-195.553-95.84C173.225,130.772,108.296,164.177,57.512,226.566z"/>
		<path style="fill:#5E6870;" d="M144.75,314.95c-11.908-12.414-23.144-24.228-34.523-35.903c-2.256-2.315-0.631-3.711,0.542-5.359
			c12.016-16.883,26.556-31.215,43.706-42.845c23.927-16.226,50.186-26.431,79.036-29.046
			c67.574-6.125,121.779,18.153,162.557,72.385c0.577,0.767,1.014,1.639,1.123,1.818c-12.131,12.562-24.083,24.938-36.302,37.591
			c-24.701-40.069-60.413-62.243-107.465-62.305C206.324,251.225,170.543,273.266,144.75,314.95z"/>
		<path style="fill:#5E6870;" d="M201.588,372.112c0.052-28.674,22.896-51.038,52.075-50.981
			c28.464,0.055,51.449,23.024,51.394,51.358c-0.055,28.184-23.552,50.946-52.486,50.844
			C224.376,423.233,201.536,400.287,201.588,372.112z"/>
	</g>
</g>
<g id="Layer_7" style="display:none;">
	<g style="display:inline;">
		<path d="M247.083,447.931c-62.704,0-125.408,0.001-188.112-0.002c-7.974,0-8.448-0.481-8.448-8.556
			c-0.002-92.537-0.002-185.075,0-277.612c0-8.192,0.277-8.475,8.447-8.475c125.408-0.003,250.816-0.003,376.223,0
			c8.172,0,8.448,0.282,8.448,8.476c0.002,92.537,0.002,185.075,0,277.612c0,8.075-0.473,8.555-8.447,8.555
			C372.491,447.933,309.787,447.931,247.083,447.931z M99.706,398.664c98.582,0,196.539,0,294.669,0c0-65.6,0-130.855,0-196.214
			c-98.407,0-196.481,0-294.669,0C99.706,268.064,99.706,333.186,99.706,398.664z"/>
		<path d="M247.081,54.81c63.229,0,126.459,0.062,189.687-0.111c5.356-0.015,7.179,1.363,6.996,6.881
			c-0.395,11.954-0.352,23.937-0.013,35.894c0.143,5.049-1.568,6.373-6.445,6.354c-40.723-0.166-81.447-0.094-122.171-0.094
			c-85.734,0-171.469,0.001-257.204-0.001c-7.402,0-7.407-0.008-7.409-7.324c-0.004-11.788,0.23-23.584-0.109-35.362
			c-0.145-5.047,1.563-6.342,6.444-6.331C120.266,54.858,183.674,54.81,247.081,54.81z"/>
		<path d="M149.019,283.714c0-8.915,0.157-17.833-0.074-26.742c-0.099-3.827,0.881-5.385,5.026-5.343
			c18.362,0.186,36.728,0.175,55.091,0.008c4.094-0.037,5.136,1.529,5.104,5.36c-0.149,18.006-0.163,36.016,0.008,54.022
			c0.039,4.081-1.113,5.74-5.41,5.701c-18.184-0.163-36.372-0.145-54.557-0.008c-3.861,0.029-5.388-1.1-5.272-5.187
			C149.199,302.261,149.019,292.985,149.019,283.714z"/>
	</g>
</g>
<g id="Layer_8" style="display:none;">
	<g style="display:inline;">
		<path style="fill:#EA4973;" d="M439.577,248.975c0.002,5.237,0.012,10.475-0.001,15.712c-0.014,5.942-16.318,13.747-18.396,14.931
			C318.611,338.04,216.068,396.507,113.608,455.121c-4.262,2.438-6.271,2.323-8.69-2.167c-5.133-9.529-9.98-19.421-16.603-27.863
			c-4.392-5.599-3.541-9.977-1.987-15.597c14.319-51.791,28.578-103.599,42.592-155.473c1.059-3.919,0.996-8.62-0.054-12.555
			c-13.344-49.999-26.964-99.924-40.511-149.868c-0.094-0.348-0.051-0.764-0.227-1.054c-5.076-8.357-1.685-15.305,3.087-22.505
			c5.176-7.811,9.696-16.072,14.214-24.296c1.916-3.488,3.553-3.973,7.132-1.924c65.945,37.753,131.972,75.362,197.976,113.011
			c36.999,21.105,73.958,42.28,111.021,63.272c4.557,2.581,17.666,10.699,17.855,13.01
			C439.898,237.029,439.575,243.015,439.577,248.975z M330.698,224.29c0.18-0.615,0.361-1.23,0.541-1.844
			c-60.947-34.77-121.893-69.541-182.84-104.311c-0.37,0.395-0.739,0.789-1.109,1.184c0.303,1.695,0.48,3.424,0.929,5.079
			c8.485,31.304,17.089,62.577,25.421,93.921c1.291,4.858,3.49,6.587,8.584,6.568c47.642-0.176,95.286-0.098,142.929-0.124
			C327.002,224.762,328.85,224.455,330.698,224.29z M331.238,275.073c-0.168-0.599-0.336-1.198-0.504-1.797
			c-1.68-0.178-3.359-0.509-5.039-0.51c-47.849-0.027-95.698,0.034-143.546-0.106c-4.657-0.014-6.722,1.707-7.897,6.08
			c-8.374,31.164-16.943,62.276-25.404,93.417c-0.531,1.954-0.678,4.012-1.004,6.021c0.396,0.29,0.792,0.58,1.188,0.87
			C209.768,344.389,270.503,309.731,331.238,275.073z"/>
	</g>
</g>
<g id="Layer_9" style="display:none;">
	<g style="display:inline;">
		<path style="fill:#CCCCCC;" d="M200.938,135.101c4.378-10.586,9.478-19.73,16.082-27.954
			c14.889-18.542,33.713-30.672,57.548-33.772c19.187-2.495,37.909-0.002,55.449,8.418c18.636,8.946,31.691,23.442,39.753,42.414
			c5.179,12.188,8.519,24.843,9.224,38.141c0.298,5.616,0.875,11.217,1.351,17.146c4.136,1.564,8.376,2.995,12.478,4.749
			c17.436,7.455,31.325,18.811,39.398,36.407c3.438,7.492,4.911,15.417,5.878,23.605c1.273,10.778-0.779,20.848-4.645,30.698
			c-6.811,17.354-19.654,28.563-36.752,35.144c-10.662,4.104-21.74,5.833-33.23,5.815c-77.152-0.121-154.304,0.047-231.456-0.151
			c-16.653-0.043-32.322-4.414-45.77-14.743c-14.184-10.894-21.588-25.409-22.192-43.351c-0.338-10.041,0.182-19.927,3.435-29.587
			c5.394-16.019,15.691-28.002,29.719-37.023c7.477-4.809,15.52-8.438,24.103-10.715c2.844-0.754,3.672-2.24,3.742-4.94
			c0.117-4.476-0.037-9.07,0.916-13.396c4.588-20.826,17.999-32.718,38.587-36.878c11.777-2.379,22.362,0.906,32.198,7.301
			C197.964,133.213,199.185,133.981,200.938,135.101z"/>
		<path style="fill:#CCCCCC;" d="M150.547,336.415c2.079,5.675,3.633,10.4,5.528,14.984c3.541,8.563,9.019,15.875,15.331,22.566
			c4.634,4.913,8.445,10.29,10.225,16.89c2.726,10.11,0.247,19.098-6.241,27.053c-6.001,7.358-13.894,11.53-23.348,11.75
			c-18.119,0.423-32.574-13.72-33.059-29.882c-0.304-10.142,3.744-18.363,10.356-25.115
			C139.78,364.002,146.581,351.568,150.547,336.415z"/>
		<path style="fill:#CCCCCC;" d="M359.34,337.873c3.277,7.311,5.816,14.394,9.518,20.804c3.21,5.558,7.545,10.52,11.733,15.447
			c5.032,5.921,9.26,12.057,10.496,20.011c1.37,8.812-0.841,16.558-6.335,23.302c-16.099,19.763-45.419,14.086-54.39-7.015
			c-4.787-11.26-2.859-21.881,4.431-31.492c3.916-5.162,8.413-9.882,12.337-15.039c5.304-6.971,8.783-14.887,11.086-23.329
			C358.467,339.648,358.948,338.797,359.34,337.873z"/>
		<path style="fill:#CCCCCC;" d="M255.737,338.648c0.829,2.31,1.715,4.601,2.477,6.933c3.312,10.139,8.928,18.829,16.182,26.601
			c4.764,5.105,9.342,10.448,11.225,17.437c2.929,10.874,1.259,20.625-6.752,29.063c-5.085,5.357-10.84,8.995-18.233,10.399
			c-17.027,3.233-31.204-8.293-35.599-20.788c-4.432-12.601-0.473-23.282,7.983-32.562c6.774-7.434,12.943-15.19,16.928-24.469
			c1.753-4.082,3.079-8.347,4.599-12.529C254.944,338.705,255.341,338.676,255.737,338.648z"/>
	</g>
</g>
<g id="Layer_10" style="display:none;">
	<g style="display:inline;">
		<path d="M276.35,371.383c-29.875-17.655-59.8-35.34-89.879-53.116c-1.781,0.853-3.449,1.599-5.071,2.436
			c-44.586,23.023-97.677-2.32-109.344-51.473c-9.278-39.086,11.554-76.534,44.994-90.598c22.885-9.625,45.417-8.181,66.997,4.039
			c4.065,2.302,6.809,2.036,10.564-0.272c25.683-15.785,51.498-31.355,77.262-47.01c1.727-1.049,3.377-2.224,5.087-3.356
			c-0.954-10.702-1.221-21.081,1.521-31.28c8.579-31.908,28.8-52.372,61.257-58.604c40.69-7.812,78.759,19.271,87.868,59.32
			c8.478,37.273-10.397,72.665-40.594,87.972c-27.975,14.18-61.807,9.523-85.17-11.77c-1.491-1.359-2.976-2.725-4.893-4.482
			c-26.366,16.009-52.537,31.9-79.09,48.022c7.457,21.155,7.33,41.866-1.738,63.015c26.345,15.572,52.493,31.029,80.013,47.295
			c1.317-1.978,2.178-3.988,3.639-5.358c21.398-20.067,46.464-27.08,74.633-18.618c28.775,8.643,46.468,28.702,53.205,57.827
			c8.866,38.331-12.029,74.845-44.15,89.073c-43.106,19.094-93.544-5.974-104.684-52.228c-1.551-6.438-1.787-13.212-2.373-19.854
			C276.097,378.872,276.35,375.331,276.35,371.383z M181.414,251.111c0.05-19.708-15.255-35.465-34.321-35.859
			c-15.823-0.327-35.212,11.661-35.373,35.406c-0.161,23.706,19.097,36.027,34.918,35.843
			C165.863,286.276,181.364,270.693,181.414,251.111z M352.925,154.621c19.502-0.003,35.565-16.056,34.989-35.674
			C387.281,97.353,371,83.745,352.952,83.549c-19.281-0.209-34.804,16.061-34.865,35.921
			C318.024,140.187,335.922,155.631,352.925,154.621z M353.313,347.141c-17.525-1.151-35.375,14.65-35.233,35.327
			c0.134,19.582,15.439,35.743,34.485,35.752c18.291,0.009,34.833-13.829,35.348-35.569
			C388.373,363.21,372.438,347.196,353.313,347.141z"/>
	</g>
</g>
<g id="Layer_11" style="display:none;">
	<g style="display:inline;">
		<path style="fill:#CCCCCC;" d="M251.036,351.096c-55.716-0.008-99.68-44.396-99.646-100.606
			c0.033-54.635,44.667-99.118,99.438-99.101c55.055,0.017,100.281,45.09,100.268,99.928
			C351.082,306.739,306.592,351.104,251.036,351.096z M250.266,300.582c28.183,0.059,49.672-20.617,50.417-47.2
			c0.828-29.532-21.668-50.767-47.306-51.482c-30.157-0.841-51.475,20.293-52.046,49.389
			C200.771,279.83,224.505,301.477,250.266,300.582z"/>
		<path style="fill:#CCCCCC;" d="M88.926,276.325c-4.204,0-8.429,0.277-12.608-0.05c-14.357-1.123-24.749-11.854-24.673-25.217
			c0.074-13.075,10.35-23.833,24.476-24.774c8.752-0.583,17.599-0.559,26.357-0.03c14.206,0.858,23.789,11.348,23.743,25.176
			c-0.046,13.676-9.916,23.963-24.11,24.885c-4.377,0.284-8.788,0.044-13.183,0.044C88.926,276.347,88.926,276.336,88.926,276.325z"
			/>
		<path style="fill:#CCCCCC;" d="M412.923,276.09c-4.963,0-10.006,0.572-14.873-0.11c-13.319-1.866-21.759-11.69-21.788-24.608
			c-0.03-13.033,8.172-23.259,21.543-24.714c9.998-1.088,20.295-1.087,30.302-0.051c13.972,1.447,23.159,12.589,22.722,25.654
			c-0.424,12.683-10.902,22.979-24.724,24.017c-4.37,0.328-8.786,0.051-13.181,0.051C412.924,276.25,412.924,276.17,412.923,276.09z
			"/>
		<path style="fill:#CCCCCC;" d="M226.106,89.112c0.001-4.013-0.191-8.036,0.036-12.036c0.815-14.34,11.342-25.185,24.517-25.43
			c13.631-0.253,24.711,10.211,25.589,24.844c0.514,8.567,0.508,17.214,0.009,25.782c-0.841,14.442-11.461,24.099-25.6,23.948
			c-13.516-0.144-23.731-10.276-24.517-24.5C225.909,97.53,226.105,93.315,226.106,89.112z"/>
		<path style="fill:#CCCCCC;" d="M226.161,413.024c0-4.394-0.301-8.813,0.056-13.178c1.096-13.367,11.144-23.238,23.681-23.572
			c13.935-0.372,24.649,8.096,26.047,22.061c0.983,9.826,0.945,19.911-0.039,29.74c-1.409,14.075-12.858,23.422-26.17,22.746
			c-12.576-0.638-22.721-11.38-23.58-25.189c-0.26-4.187-0.04-8.405-0.04-12.609C226.131,413.025,226.146,413.025,226.161,413.024z"
			/>
		<path style="fill:#CCCCCC;" d="M144.898,169.866c-6.424,0.482-12.158-2.127-16.996-6.925c-5.96-5.91-11.948-11.793-17.794-17.815
			c-9.644-9.935-9.592-25.498,0.002-35.058c9.61-9.575,25.112-9.589,35.059,0.08c6.018,5.849,11.943,11.797,17.803,17.805
			c7.112,7.292,9.114,18.343,5.16,27.584C164.213,164.692,156.051,169.84,144.898,169.866z"/>
		<path style="fill:#CCCCCC;" d="M169.905,358.316c0.394,5.918-2.303,11.604-7.111,16.425c-5.927,5.943-11.788,11.954-17.824,17.785
			c-9.915,9.579-25.607,9.384-35.054-0.301c-9.349-9.585-9.422-24.887-0.013-34.647c5.957-6.179,12.048-12.232,18.205-18.213
			c7.225-7.019,18.543-9.086,27.61-4.888C165.34,338.932,170.028,346.656,169.905,358.316z"/>
		<path style="fill:#CCCCCC;" d="M358.308,169.903c-11.664,0.137-19.393-4.576-23.85-14.214c-4.202-9.089-2.096-20.392,4.963-27.641
			c5.999-6.16,12.048-12.277,18.246-18.236c9.933-9.548,24.703-9.235,34.485,0.566c9.588,9.606,9.843,24.758,0.436,34.521
			c-5.833,6.054-11.863,11.918-17.814,17.858C369.949,167.574,364.266,170.302,358.308,169.903z"/>
		<path style="fill:#CCCCCC;" d="M374.036,399.317c-6.314,0.431-12.016-2.262-16.848-7.076
			c-5.957-5.934-11.979-11.806-17.819-17.854c-9.386-9.721-9.218-26.072,0.227-35.211c9.391-9.087,25.226-9.05,34.805,0.219
			c6.179,5.979,12.292,12.035,18.23,18.252c7.373,7.719,8.928,17.184,4.931,26.573C393.505,393.751,385.872,399.682,374.036,399.317
			z"/>
	</g>
</g>
<g id="Layer_12">
	<g>
		<path style="fill:#F4327F;" d="M105.708,238.286c0-61.484-0.002-122.967,0.002-184.451c0-9.008,1.39-10.379,10.507-10.38
			c91.283-0.002,182.565-0.003,273.848,0.001c8.691,0,10.182,1.483,10.182,10.138c0.003,122.967,0.012,245.935-0.014,368.902
			c-0.003,11.515-3.42,21.568-13.404,28.376c-10.007,6.823-22.592,5.871-31.941-1.871c-2.286-1.893-69.705-57.164-97.533-82.058
			c-3.451-3.087-5.401-2.987-8.793,0.046c-27.691,24.765-99.347,84.692-108.148,87.336c-14.96,4.494-30.398-6.206-33.502-21.516
			c-0.78-3.846-1.151-7.841-1.155-11.768C105.687,360.122,105.708,299.204,105.708,238.286z M148.997,396.427
			c0.563,0.204,1.125,0.409,1.687,0.613c34.044-29.118,68.088-58.236,102.297-87.495c34.469,29.478,68.479,58.564,103.555,88.562
			c0-104.703,0-207.714,0-311.382c-2.441,0-4.466,0-6.491,0c-64.706,0-129.412,0.092-194.117-0.152
			c-6.017-0.023-7.05,1.896-7.042,7.351c0.151,98.851,0.11,197.702,0.11,296.553C148.997,392.46,148.997,394.443,148.997,396.427z"
			/>
	</g>
</g>
</svg>
