<?xml version="1.0" encoding="iso-8859-1"?>
<!-- Generator: Adobe Illustrator 21.0.2, SVG Export Plug-In . SVG Version: 6.00 Build 0)  -->
<svg version="1.1" id="Layer_1" xmlns="http://www.w3.org/2000/svg" xmlns:xlink="http://www.w3.org/1999/xlink" x="0px" y="0px"
	 viewBox="0 0 124 88" style="enable-background:new 0 0 124 88;" xml:space="preserve">
<g>
	<path id="travels" style="fill:#CCCCCC;" d="M63.89,0c-24.22,0.08-43.78,19.78-43.7,44v0.3c0.05,7.56,2.01,14.66,5.4,20.85
		c2.59-0.09,5.29-0.4,7.97-0.86c-3.83-5.75-6.07-12.63-6.12-20.05V44C27.38,23.8,43.69,7.38,63.89,7.31
		c14.98-0.1,27.92,8.8,33.71,21.63c2.23-0.72,5.06-1.52,7.28-1.71C98.25,11.14,82.36-0.13,63.89,0z M98.22,57.59
		c-5.37,13.45-18.47,23-33.85,23.1c-10.39,0.07-19.8-4.19-26.52-11.09c-2.91,0.53-5.82,0.94-8.55,1.19
		C37.39,81.34,50.17,88.09,64.49,88c21-0.15,38.46-14.97,42.7-34.68L98.22,57.59z"/>
	<path style="fill:#CCCCCC;" d="M124,38.1c0,0.16-0.01,0.32-0.04,0.48c-0.05,0.3-0.14,0.6-0.28,0.87c-0.65,0.96-1.58,1.71-2.65,2.14
		c-0.2,0.09-0.41,0.16-0.63,0.22c-1.41,0.56-4.28,1.61-6.87,2.53c-0.08,0.03-0.16,0.06-0.24,0.09c-1.69,0.66-3.42,1.32-5.17,1.98
		c-2.51,0.94-5.07,1.88-7.67,2.82c-2.57,0.92-5.18,1.84-7.81,2.74c-4.21,1.44-8.46,2.84-12.7,4.15c-1.71,0.99-3.96,1.59-6.23,1.62
		c-1.76,0.03-3.3-0.29-4.46-0.9c-0.01,0-0.01,0-0.01,0c-0.46-0.11-0.84-0.32-1.12-0.64c-1.43-1.63-3.89-3.7-5.77-5.79
		c-0.69-0.72-1.29-1.53-1.78-2.4c-0.35-0.01-0.69-0.17-0.92-0.44c-0.12-0.14-0.2-0.3-0.25-0.48c-0.03-0.09-0.05-0.19-0.06-0.29
		v-0.31c0.05-0.63,0.45-1.17,1.01-1.4c0.02-0.05,0.06-0.09,0.09-0.13c2.52-2.53,7.02-1.07,11.36,0.09c1.71,0.46,3.55,0.42,5.16,0.2
		c1.55-0.57,3.09-1.14,4.62-1.71c-2.7-2.74-5.38-5.56-8.09-8.53c-0.05,0.02-0.11,0.02-0.16,0.02c-0.97-0.07-1.7-0.91-1.64-1.88
		c0.01-0.08,0.02-0.17,0.04-0.25c0.14-1.1,1.08-1.93,2.19-1.94c1.93-0.23,3.84-0.47,5.71-0.7h0.2c0.13,0.01,0.31,0.02,0.54,0.04
		c0.61,0.05,1.23,0.14,1.83,0.26c1.61,0.27,3.14,0.94,4.43,1.94c2.05,1.73,4.45,2.9,6.97,3.47c2.08,0.48,4.25,0.56,6.38,0.22
		c0.55-0.09,1.09-0.21,1.63-0.36c1.84-0.69,3.65-1.35,5.4-1.97c1.67-0.59,3.29-1.14,4.86-1.65c0.03,0.06,0.06,0.11,0.09,0.17
		c0.24-0.04,0.62-0.09,1.09-0.12c0.43-0.04,0.93-0.06,1.47-0.06c0.27,0,0.55,0,0.84,0.02c0.29,0.02,0.58,0.03,0.88,0.06
		c1.11,0.11,2.3,0.35,3.42,0.75c1.26,0.44,2.4,1.11,3.15,2.08c0.3,0.41,0.56,0.85,0.78,1.31c0.09,0.21,0.17,0.41,0.23,0.6
		c0.06,0.18,0.1,0.37,0.13,0.56c0.02,0.09,0.03,0.17,0.03,0.26C123.99,37.93,124,38.01,124,38.1z"/>
	<path style="fill:#CCCCCC;" d="M62.74,59.77c-0.08,1.71-1.44,3.07-3.1,3.17c-0.32,0.19-0.68,0.4-1.08,0.62
		c-3.9,2.1-12.28,4.53-20.71,6.04c-2.91,0.53-5.82,0.94-8.55,1.19c-2.74,0.27-5.31,0.37-7.51,0.26c-10.75-0.54-22.13-6.18-21.8-15.6
		c0.32-9.23,10.43-19.56,10.85-19.98l0.01-0.01c0.52-0.95,1.56-1.57,2.72-1.52c1.63,0.09,2.88,1.48,2.8,3.11
		c-0.06,1.03-0.63,1.9-1.46,2.39C7.14,47.86,6.19,50.72,6,54.41c-0.19,3.76,2.28,10.15,16.72,10.73c0.94,0.04,1.89,0.04,2.87,0.01
		c2.59-0.09,5.29-0.4,7.97-0.86c11.84-2,23.29-6.77,23.29-6.77h0.01c0.63-0.78,1.61-1.26,2.7-1.21
		C61.39,56.39,62.82,57.94,62.74,59.77z"/>
</g>
</svg>
